<svg width="208" height="57" viewBox="0 0 208 57" fill="none" xmlns="http://www.w3.org/2000/svg">
<path d="M15.6907 56.5036H22.8073C21.5783 56.2805 20.3961 55.8505 19.3109 55.2319C18.1692 55.8223 16.9507 56.2503 15.6907 56.5036Z" fill="#779E7C"/>
<path d="M18.8901 54.5326V14.9269C16.6066 13.4417 12.9864 13.2993 11.9838 13.2869V14.0079C13.2525 14.0636 14.1498 14.2214 14.6325 14.4813C15.4473 14.9062 15.8599 15.7427 15.8702 16.9907L15.6907 52.4812C15.6907 53.7374 15.2627 54.5863 14.4066 55.0277C13.8837 55.2907 13.0235 55.4361 11.8199 55.464V56.0983C15.6505 56.0983 18.1908 54.9039 18.8901 54.5326Z" fill="#779E7C"/>
<path d="M19.642 54.5326V14.9269C21.9255 13.4417 25.5457 13.2993 26.5482 13.2869V14.0079C25.2796 14.0636 24.3823 14.2214 23.8996 14.4813C23.0745 14.9062 22.6671 15.7427 22.6774 16.9907L22.8321 52.4812C22.8321 53.7374 23.2601 54.5863 24.1162 55.0277C24.6391 55.2907 25.4993 55.4361 26.7029 55.464V56.0983C22.8971 56.0983 20.332 54.9039 19.642 54.5326Z" fill="#779E7C"/>
<path d="M22.5351 12.9218H16.0001C17.1247 13.1706 18.2005 13.6035 19.1841 14.2028C20.238 13.6263 21.3653 13.1953 22.5351 12.9218Z" fill="#779E7C"/>
<path d="M2.83737 48.5361H10.8297C9.44362 48.2812 8.11467 47.7791 6.90625 47.054C5.6313 47.7478 4.25988 48.2473 2.83737 48.5361Z" fill="#779E7C"/>
<path d="M6.49782 21.9476C4.40924 20.6109 1.29338 20.3819 0 20.3448V20.9637C1.25625 21.0874 2.09787 21.272 2.52487 21.5175C3.23035 21.9414 3.57999 22.7552 3.57999 23.9434V44.4796C3.57999 45.7173 3.18703 46.5517 2.4011 46.9828C1.93491 47.2468 1.13454 47.4057 0 47.4593V48.0781C2.26749 47.9761 4.48524 47.3794 6.49782 46.3299V21.9476Z" fill="#779E7C"/>
<path d="M10.6379 19.89H3.33865C4.60284 20.1212 5.816 20.5748 6.92174 21.2298C8.08873 20.6049 9.34061 20.1535 10.6379 19.89Z" fill="#779E7C"/>
<path d="M10.5667 32.7433V23.9465C10.5667 22.7273 10.9669 21.9022 11.7672 21.4711C12.2499 21.2112 13.1101 21.0472 14.354 20.9791V20.3293C10.5543 20.3293 8.01089 21.567 7.32397 21.96V46.3361C9.57346 47.7966 12.943 48.0596 14.354 48.1029V47.4593C13.1813 47.4191 12.3459 47.2767 11.8477 47.0261C10.9937 46.5826 10.5667 45.7338 10.5667 44.4796V34.7081H14.9914V32.7433H10.5667Z" fill="#779E7C"/>
<path d="M35.6947 48.5361H27.6993C29.0849 48.2795 30.4136 47.7776 31.6227 47.054C32.8986 47.7481 34.2711 48.2476 35.6947 48.5361Z" fill="#779E7C"/>
<path d="M32.0342 21.9476C34.1228 20.614 37.2387 20.3819 38.5321 20.3448V20.9637C37.2758 21.0874 36.4332 21.272 36.0041 21.5175C35.3017 21.9414 34.949 22.7552 34.949 23.9434V44.4796C34.949 45.7173 35.343 46.5517 36.131 46.9828C36.5982 47.2458 37.3965 47.4036 38.5321 47.4593V48.0781C36.2646 47.9761 34.0468 47.3794 32.0342 46.3299V21.9476Z" fill="#779E7C"/>
<path d="M27.8942 19.89H35.1842C33.923 20.1215 32.7129 20.5751 31.6104 21.2298C30.4434 20.6049 29.1915 20.1535 27.8942 19.89Z" fill="#779E7C"/>
<path d="M27.9654 32.7433V23.9465C27.9654 22.7273 27.5652 21.9022 26.7649 21.4711C26.2822 21.2112 25.4199 21.0472 24.1781 20.9791V20.3293C27.9778 20.3293 30.5212 21.567 31.2081 21.96V46.3361C28.9586 47.7966 25.586 48.0596 24.1781 48.1029V47.4593C25.3508 47.4191 26.1862 47.2767 26.6813 47.0261C27.5374 46.5826 27.9654 45.7338 27.9654 44.4796V34.7081H23.5376V32.7433H27.9654Z" fill="#779E7C"/>
<path d="M20.3598 11.0189H16.2043C14.3478 11.0189 13.8868 11.0003 13.729 10.8085C13.6639 10.7195 13.6392 10.6072 13.6609 10.4991C13.6949 10.1061 13.6609 8.73847 13.6609 8.72299C13.4103 6.50755 12.6862 4.70672 11.5104 3.35765L11.4207 3.25245C11.2826 3.06919 11.314 2.80956 11.4919 2.66455L11.5166 2.64598C11.5299 2.63537 11.5461 2.62891 11.563 2.62742C12.8007 2.45724 13.729 2.65836 14.2766 3.2246C14.5577 3.52926 14.7287 3.91921 14.7624 4.33232C15.5328 4.04859 16.3886 4.43383 16.687 5.1987C16.9717 5.8361 16.9284 6.60347 16.588 6.98096C16.3802 7.1617 16.2978 7.44759 16.3776 7.71119C16.5861 8.0483 16.9592 8.24785 17.3554 8.23411C17.5565 8.23411 17.6895 8.20317 17.7576 8.10415C17.9587 7.8133 17.6555 6.97168 17.3306 6.13624C16.7675 4.67269 17.5472 3.28339 18.0701 2.35513L18.1011 2.29943C18.6116 1.42687 19.184 0.551211 19.184 0.541928C19.2081 0.506967 19.2508 0.489884 19.2923 0.498609C19.3051 0.501674 19.3169 0.508081 19.3264 0.517174C19.3351 0.522737 19.3425 0.530128 19.348 0.538834C19.348 0.538834 19.9174 1.42687 20.4217 2.31181L20.4557 2.36751C20.9725 3.29577 21.7553 4.66031 21.1891 6.11768C20.8611 6.95311 20.5702 7.79473 20.7621 8.08559C20.8271 8.1846 20.9601 8.22483 21.1643 8.21555C21.5611 8.22883 21.934 8.0264 22.139 7.68644C22.2229 7.42348 22.1412 7.13586 21.9317 6.95621C21.5882 6.57871 21.548 5.81135 21.8327 5.17395C22.1311 4.40907 22.9868 4.02384 23.7573 4.30757C23.7995 3.89059 23.9817 3.50017 24.274 3.19985C24.8279 2.63361 25.7499 2.43248 26.9876 2.60267C27.0055 2.60409 27.0227 2.61053 27.0371 2.62123C27.2325 2.75555 27.2823 3.02268 27.1485 3.21841L27.133 3.24007L27.0433 3.34527C25.8644 4.69434 25.1435 6.49517 24.8774 8.69824C24.8774 8.69824 24.8279 10.0721 24.8774 10.465C24.8967 10.5736 24.871 10.6853 24.8062 10.7745C24.6329 10.9663 24.1874 10.9756 22.3308 10.9849L20.3598 11.0189Z" fill="#779E7C"/>
<path d="M60.4978 29.81V32.1028C60.4942 32.6319 60.52 33.1608 60.5752 33.687C60.5941 33.9141 60.6495 34.1366 60.7391 34.3461C60.8485 34.5354 61.0496 34.6531 61.2682 34.6555L61.7076 34.7081H62.0696C62.1656 34.7081 62.2151 34.7452 62.2151 34.8133C62.2151 34.8814 62.1192 34.9587 61.9273 34.9587H58.0039C57.8151 34.9587 57.7192 34.9092 57.7192 34.8133C57.7192 34.7174 57.7656 34.7081 57.8616 34.7081H58.1307L58.3937 34.6555C58.563 34.6272 58.7032 34.5084 58.7589 34.3461C58.8333 34.1324 58.8852 33.9115 58.9136 33.687C58.9687 33.1608 58.9946 32.6319 58.9909 32.1028V27.938C58.9964 27.886 58.9593 27.8392 58.9074 27.8328H51.3637C51.3386 27.8293 51.3131 27.8363 51.2932 27.852C51.2734 27.8678 51.2608 27.891 51.2585 27.9163V32.1028C51.2559 32.6319 51.2828 33.1608 51.339 33.687C51.3573 33.9135 51.4105 34.1358 51.4968 34.3461C51.6087 34.5328 51.8083 34.6495 52.0259 34.6555C52.1527 34.6555 52.2982 34.6926 52.4591 34.7081H52.8273C52.9232 34.7081 52.9696 34.7452 52.9696 34.8133C52.9696 34.8814 52.8737 34.9587 52.685 34.9587H50.2436L49.7795 34.9216H48.7336C48.5449 34.9216 48.449 34.8721 48.449 34.7762C48.449 34.6802 48.4954 34.671 48.5913 34.671H48.8543L49.1266 34.6184C49.2947 34.5891 49.4335 34.4705 49.4886 34.3089C49.5616 34.0948 49.6135 33.8741 49.6433 33.6499C49.6985 33.1236 49.7243 32.5947 49.7207 32.0656V22.8202C49.714 22.5776 49.6526 22.3396 49.5412 22.124C49.3977 21.9442 49.1859 21.8321 48.9565 21.8146C48.8563 21.7829 48.752 21.7662 48.647 21.7651H48.3098C48.2138 21.7651 48.1674 21.7279 48.1674 21.6537C48.1674 21.5794 48.2633 21.533 48.4521 21.5113H52.1992C52.3879 21.5113 52.4838 21.5608 52.4838 21.6537C52.4838 21.7465 52.4374 21.7867 52.3415 21.7651H52.1837C52.0958 21.7741 52.0088 21.7907 51.9238 21.8146C51.7217 21.8364 51.5411 21.9507 51.4349 22.124C51.3282 22.3431 51.2701 22.5827 51.2647 22.8264V27.0469C51.2612 27.072 51.2682 27.0975 51.284 27.1173C51.2997 27.1372 51.323 27.1498 51.3482 27.1521H58.8981C58.9501 27.1575 58.9968 27.1204 59.0033 27.0685V22.8202C58.9966 22.5776 58.9352 22.3396 58.8238 22.124C58.6791 21.944 58.4662 21.832 58.236 21.8146C58.1362 21.7812 58.0317 21.7645 57.9265 21.7651H57.6171C57.5212 21.7651 57.4748 21.7279 57.4748 21.6537C57.4748 21.5794 57.5676 21.533 57.7594 21.5113H61.5034C61.6953 21.5113 61.7881 21.5608 61.7881 21.6537C61.7881 21.7465 61.7417 21.7867 61.6458 21.7651H61.457C61.3691 21.7741 61.2822 21.7907 61.1971 21.8146C60.9943 21.8368 60.813 21.9509 60.7051 22.124C60.6025 22.3444 60.5457 22.5833 60.538 22.8264C60.5422 22.9785 60.5329 23.1307 60.5102 23.2812C60.4976 23.4956 60.4976 23.7104 60.5102 23.9248V29.8038L60.4978 29.81Z" fill="#779E7C"/>
<path d="M67.9858 21.9507C68.0508 21.7551 68.1283 21.5639 68.2178 21.3783C68.2673 21.2947 68.3199 21.2514 68.3818 21.2514C68.4437 21.2514 68.4932 21.2885 68.5427 21.369C68.6327 21.5396 68.7102 21.7164 68.7748 21.8981C68.8212 22.0126 68.9326 22.2972 69.0842 22.7428C69.2358 23.1884 69.4648 23.7361 69.703 24.3858C69.9413 25.0356 70.2538 25.7411 70.5478 26.4899L71.4296 28.7982C71.7205 29.5562 71.9989 30.2679 72.2681 30.9424C72.5373 31.617 72.7539 32.1801 72.9334 32.6381C73.0592 32.9704 73.2113 33.2922 73.3882 33.6004C73.5061 33.8102 73.6439 34.0081 73.7998 34.1914C73.8992 34.3147 74.0197 34.4194 74.1556 34.5008C74.2553 34.551 74.3588 34.5934 74.465 34.6276C74.5882 34.6713 74.7159 34.7014 74.8456 34.7174H75.1891C75.3035 34.7174 75.3623 34.7545 75.3623 34.8226C75.3623 34.8906 75.3314 34.9216 75.2571 34.9371C75.1765 34.9587 75.093 34.9681 75.0096 34.9649H73.116L72.1877 34.934L71.7947 34.8999C71.7019 34.8999 71.6524 34.869 71.6524 34.8071C71.6524 34.7452 71.6895 34.705 71.7762 34.6802C71.8401 34.6497 71.8907 34.5969 71.9185 34.5317C71.9531 34.42 71.9396 34.2989 71.8814 34.1975L70.2383 29.8131C70.2104 29.7477 70.1454 29.706 70.0744 29.7079H66.2375C66.1557 29.7117 66.0857 29.768 66.0643 29.8471L65.0092 33.0156C64.8611 33.3974 64.7765 33.8008 64.7585 34.2099C64.7491 34.3725 64.8364 34.5254 64.9813 34.5998C65.1189 34.6818 65.2759 34.7256 65.4361 34.7267H65.597C65.7146 34.7267 65.7765 34.7638 65.7765 34.8319C65.7765 34.8999 65.6868 34.9742 65.5073 34.9742H62.1037C61.8809 34.9742 61.7633 34.9278 61.7633 34.8319C61.7633 34.7359 61.819 34.7267 61.9273 34.7267H62.1934C62.281 34.7329 62.3689 34.7329 62.4565 34.7267C62.8277 34.6923 63.166 34.4995 63.3847 34.1975C63.6141 33.8438 63.8021 33.4649 63.9447 33.0682L67.9858 21.9507ZM69.8423 29.0674C69.9165 29.0674 69.9351 29.0271 69.9165 28.9405L68.2209 24.129C68.124 23.8712 68.0342 23.8712 67.9517 24.129L66.3613 28.9652C66.3273 29.0519 66.3613 29.0921 66.417 29.0921L69.8423 29.0674Z" fill="#779E7C"/>
<path d="M77.9738 29.81V32.1028C77.9713 32.6319 77.9981 33.1608 78.0543 33.687C78.0718 33.9143 78.1272 34.1371 78.2183 34.3461C78.3276 34.5355 78.5288 34.6531 78.7474 34.6555L79.1837 34.7081H79.5488C79.6447 34.7081 79.6912 34.7452 79.6912 34.8133C79.6912 34.8814 79.5952 34.9587 79.4065 34.9587H77.4509L77.2313 34.9216H75.4985C75.3098 34.9216 75.2138 34.8721 75.2138 34.7762C75.2138 34.6802 75.2603 34.671 75.3562 34.671H75.6254L75.8884 34.6184C76.0577 34.5901 76.1978 34.4713 76.2535 34.3089C76.3279 34.0953 76.3798 33.8744 76.4082 33.6499C76.4633 33.1236 76.4892 32.5947 76.4855 32.0656L76.4856 22.8202C76.4484 22.2416 76.2504 21.8919 75.8667 21.8238C75.7651 21.7984 75.6617 21.7808 75.5573 21.7712H75.3067C75.2138 21.7712 75.1643 21.7341 75.1643 21.6598C75.1643 21.5856 75.2603 21.5392 75.4521 21.5175H78.9888C79.1806 21.5175 79.2734 21.5639 79.2734 21.6598C79.2734 21.7558 79.227 21.7929 79.1311 21.7712H78.9424C78.8548 21.7807 78.7679 21.7962 78.6824 21.8177C78.4805 21.8399 78.3001 21.9541 78.1936 22.1271C78.0893 22.3471 78.0314 22.5861 78.0234 22.8295V29.81H77.9738Z" fill="#779E7C"/>
<path d="M82.1789 26.6725V22.8202C82.1758 22.5778 82.1165 22.3395 82.0056 22.124C81.8596 21.9438 81.6458 21.8319 81.4146 21.8146C81.3205 21.7844 81.2225 21.7677 81.1237 21.765L80.8143 21.7651C80.7215 21.7651 80.672 21.7279 80.672 21.6537C80.672 21.5794 80.7679 21.533 80.9567 21.5113H85.0719C85.643 21.5127 86.2131 21.5593 86.7769 21.6506C87.3513 21.7336 87.8964 21.9568 88.3642 22.3003C88.4956 22.4085 88.6206 22.5242 88.7386 22.6469C88.8891 22.8101 89.0238 22.9873 89.1408 23.176C89.2439 23.3917 89.3267 23.6165 89.3884 23.8474C89.4777 24.1232 89.5216 24.4116 89.5183 24.7014C89.5105 25.3983 89.3466 26.0844 89.0387 26.7096C88.6137 27.5116 88.0441 28.2281 87.3586 28.8229L89.3884 31.4066C90.0072 32.177 90.5549 32.8423 91.084 33.4023C91.4415 33.821 91.8792 34.164 92.3712 34.411C92.6559 34.5383 92.9536 34.6337 93.2592 34.6957C93.4294 34.6957 93.5686 34.7328 93.6862 34.739C93.8038 34.7452 93.8997 34.739 93.9554 34.739C94.0111 34.739 94.1163 34.7762 94.1163 34.8442C94.1237 34.8997 94.085 34.9507 94.0297 34.9587C93.9169 34.9835 93.8014 34.9928 93.6862 34.9866H92.4238C92.0358 34.9948 91.6478 34.9721 91.2634 34.9185C91.0006 34.8747 90.748 34.7834 90.5178 34.6493C90.0878 34.4085 89.711 34.0833 89.41 33.6932C89.0573 33.26 88.6241 32.7051 88.1105 32.0285C87.9186 31.781 87.7299 31.4994 87.538 31.2611L87.0027 30.5124L86.52 29.8626C86.3715 29.6707 86.257 29.5098 86.1735 29.3892C86.1122 29.3238 86.0278 29.2849 85.9383 29.2809L83.7476 29.2437C83.6641 29.2437 83.6208 29.2932 83.6208 29.3892V32.109C83.6182 32.6381 83.645 33.167 83.7012 33.6932C83.7195 33.9197 83.7728 34.142 83.859 34.3523C83.971 34.539 84.1705 34.6557 84.3881 34.6617C84.515 34.6617 84.6604 34.6988 84.8213 34.7143H85.1895C85.2855 34.7143 85.3318 34.7514 85.3318 34.8195C85.3318 34.8876 85.2359 34.9649 85.0472 34.9649H81.198C81.0062 34.9649 80.9102 34.9154 80.9102 34.8195C80.9102 34.7236 80.9598 34.7143 81.0526 34.7143H81.3249L81.5879 34.6617C81.7575 34.6326 81.8982 34.5143 81.9561 34.3523C82.03 34.1388 82.0798 33.9177 82.1046 33.6932C82.1608 33.167 82.1877 32.6381 82.1851 32.109V29.81L82.1789 26.6725ZM83.6053 28.2196C83.6024 28.3086 83.6521 28.391 83.7321 28.43C83.9622 28.5512 84.2131 28.6278 84.4716 28.6558C84.8459 28.7079 85.2232 28.7337 85.601 28.7332C85.8281 28.732 86.0547 28.7124 86.2787 28.6744C86.5171 28.6343 86.7428 28.539 86.9377 28.3959C87.2874 28.134 87.5565 27.7791 87.7144 27.3717C87.937 26.8252 88.0424 26.2381 88.0238 25.6483C88.0861 24.6974 87.794 23.7571 87.2038 23.0089C86.6315 22.3661 85.7984 22.0179 84.9389 22.0621C84.6949 22.0541 84.4506 22.0665 84.2086 22.0992C84.0527 22.1149 83.8977 22.1397 83.7445 22.1735C83.6524 22.2 83.5925 22.2886 83.6022 22.3839L83.6053 28.2196Z" fill="#779E7C"/>
<path d="M95.8181 28.2257C95.8221 27.7153 95.8822 27.2068 95.9975 26.7096C96.1128 26.1634 96.2893 25.632 96.5236 25.1253C96.7767 24.5991 97.088 24.103 97.4519 23.6463C97.836 23.1676 98.2909 22.7502 98.8009 22.4086C99.3493 22.0397 99.9487 21.7531 100.58 21.5577C101.303 21.344 102.054 21.2397 102.808 21.2483C103.756 21.2377 104.699 21.3948 105.593 21.7124C106.414 21.9992 107.169 22.4497 107.811 23.0368C108.445 23.6301 108.947 24.3501 109.284 25.1501C109.648 26.0327 109.828 26.9803 109.813 27.9349C109.813 28.9017 109.634 29.8606 109.284 30.7626C108.962 31.6218 108.474 32.4094 107.848 33.0805C107.217 33.758 106.452 34.2974 105.602 34.6648C104.679 35.061 103.683 35.2592 102.678 35.2465C101.586 35.2779 100.502 35.0577 99.5095 34.6029C98.6833 34.21 97.951 33.6444 97.3621 32.9444C96.8067 32.2802 96.3862 31.514 96.1244 30.6887C95.8951 29.8886 95.7918 29.0576 95.8181 28.2257ZM97.5137 27.6966C97.5027 28.6528 97.6502 29.6043 97.95 30.5123C98.2085 31.3062 98.6194 32.0419 99.1598 32.6783C99.6594 33.2602 100.278 33.7286 100.973 34.0521C101.676 34.377 102.442 34.5409 103.216 34.5317C103.707 34.5196 104.193 34.4447 104.664 34.3089C105.251 34.1353 105.792 33.8341 106.249 33.4271C106.82 32.9132 107.272 32.2792 107.57 31.5706C107.966 30.5631 108.145 29.4835 108.096 28.4021C108.115 27.436 107.962 26.4742 107.644 25.5616C107.378 24.8034 106.969 24.1036 106.437 23.5009C105.483 22.4275 104.114 21.8138 102.678 21.8145C101.967 21.8087 101.262 21.9325 100.596 22.1797C99.9827 22.4329 99.4348 22.821 98.9928 23.3152C98.5071 23.8464 98.1363 24.4721 97.9036 25.1532C97.6275 25.9827 97.4956 26.8535 97.5137 27.7276V27.6966Z" fill="#779E7C"/>
<path d="M111.846 26.6724V22.8202C111.843 22.5778 111.784 22.3395 111.673 22.124C111.527 21.9438 111.313 21.8319 111.082 21.8146C110.982 21.7813 110.878 21.7646 110.772 21.765H110.463C110.367 21.765 110.318 21.7279 110.318 21.6536C110.318 21.5794 110.413 21.533 110.605 21.5113H111.886L112.629 21.5392H117.465C117.578 21.5358 117.69 21.5213 117.799 21.4959C117.848 21.4742 117.896 21.4494 117.942 21.4216C117.973 21.4002 118.009 21.3874 118.047 21.3845C118.115 21.3845 118.152 21.4371 118.152 21.5485C118.149 21.6424 118.131 21.7352 118.099 21.8238C118.055 22.008 118.026 22.1952 118.01 22.3839V22.616C118.014 22.7323 118.004 22.8487 117.979 22.9625C117.948 23.0894 117.979 23.2069 117.951 23.3245C117.952 23.4036 117.944 23.4825 117.926 23.5597C117.919 23.6094 117.907 23.6582 117.889 23.7051C117.874 23.7463 117.834 23.7727 117.79 23.7701C117.71 23.7701 117.669 23.6989 117.669 23.5566C117.666 23.4525 117.654 23.349 117.632 23.2472C117.607 23.1171 117.565 22.9912 117.505 22.8728C117.407 22.7201 117.272 22.5946 117.112 22.5077C116.861 22.3739 116.58 22.3038 116.296 22.3034L113.557 22.2415C113.452 22.2415 113.399 22.3096 113.399 22.4396V27.3903C113.399 27.5017 113.436 27.5543 113.52 27.5543H116.614C116.793 27.5415 116.97 27.5114 117.143 27.4646C117.272 27.4296 117.383 27.3465 117.453 27.2325C117.484 27.1891 117.518 27.1478 117.555 27.1087C117.579 27.0775 117.615 27.0582 117.654 27.0561C117.713 27.0561 117.741 27.1056 117.741 27.1985C117.732 27.3029 117.714 27.4064 117.688 27.5079C117.644 27.7275 117.614 27.9497 117.598 28.1731C117.601 28.277 117.592 28.3809 117.57 28.4826V29.3551C117.577 29.4324 117.577 29.51 117.57 29.5872C117.573 29.6175 117.562 29.6476 117.541 29.6691C117.519 29.6907 117.489 29.7015 117.459 29.6986C117.397 29.6986 117.338 29.6398 117.338 29.5346C117.343 29.4301 117.331 29.3255 117.301 29.2252C117.289 29.1134 117.264 29.0034 117.227 28.8972C117.164 28.7433 117.064 28.6073 116.936 28.5011C116.752 28.3609 116.532 28.2752 116.302 28.2536H113.61C113.523 28.2536 113.486 28.3062 113.486 28.4114V32.2204C113.482 32.7497 113.511 33.2788 113.573 33.8046C113.585 34.0331 113.638 34.2574 113.73 34.4667C113.842 34.6535 114.042 34.7702 114.26 34.7762L114.696 34.8288H115.061C115.157 34.8288 115.203 34.8659 115.203 34.934C115.203 35.002 115.107 35.0763 114.919 35.0763H110.977C110.785 35.0763 110.692 35.0299 110.692 34.934C110.692 34.8381 110.738 34.8288 110.834 34.8288H111.103L111.366 34.7762C111.535 34.744 111.676 34.627 111.738 34.4667C111.806 34.2509 111.855 34.0293 111.883 33.8046C111.939 33.2784 111.966 32.7495 111.964 32.2204L111.964 29.9245L111.846 26.6724Z" fill="#779E7C"/>
<path d="M126.129 29.81V32.1028C126.126 32.6319 126.153 33.1608 126.209 33.687C126.221 33.9145 126.275 34.1379 126.367 34.3461C126.479 34.5328 126.679 34.6495 126.896 34.6555L127.333 34.7081H127.698C127.794 34.7081 127.84 34.7452 127.84 34.8133C127.84 34.8814 127.747 34.9587 127.555 34.9587H123.62C123.431 34.9587 123.335 34.9092 123.335 34.8133C123.335 34.7174 123.384 34.7081 123.477 34.7081H123.746L124.016 34.6555C124.183 34.623 124.321 34.5058 124.381 34.3461C124.455 34.1326 124.504 33.9115 124.529 33.687C124.585 33.1608 124.613 32.632 124.613 32.1028V22.8202C124.576 22.2416 124.375 21.8919 123.994 21.8238C123.892 21.7987 123.789 21.7811 123.685 21.7712H123.459C123.363 21.7712 123.316 21.7341 123.316 21.6598C123.316 21.5856 123.409 21.5392 123.601 21.5175H127.159C127.351 21.5175 127.447 21.5639 127.447 21.6598C127.447 21.7558 127.398 21.7929 127.302 21.7712H127.113C127.027 21.7804 126.943 21.7959 126.859 21.8176C126.656 21.8386 126.474 21.9529 126.367 22.1271C126.261 22.3463 126.204 22.586 126.2 22.8295C126.204 22.9816 126.195 23.1338 126.172 23.2843C126.16 23.4987 126.16 23.7135 126.172 23.9279V29.8069L126.129 29.81Z" fill="#779E7C"/>
<path d="M131.587 35.2341C131.172 35.2337 130.758 35.1985 130.349 35.1289C129.947 35.0605 129.555 34.9377 129.186 34.7638C129.086 34.7308 129.004 34.658 128.96 34.5627C128.926 34.4063 128.913 34.2459 128.923 34.0862C128.915 33.6949 128.927 33.3034 128.96 32.9135C128.997 32.5824 128.997 32.3441 129.013 32.2018C129.028 32.0594 129.071 31.9171 129.155 31.9171C129.239 31.9171 129.276 31.979 129.276 32.1121V32.4029C129.284 32.5263 129.298 32.6492 129.319 32.7711C129.378 33.0757 129.5 33.3645 129.678 33.6189C129.842 33.8469 130.053 34.0368 130.297 34.1759C130.547 34.317 130.815 34.4213 131.095 34.4853C131.381 34.5481 131.672 34.5803 131.965 34.5812C132.351 34.5873 132.734 34.5135 133.091 34.3646C133.387 34.2417 133.656 34.062 133.883 33.8355C134.09 33.6191 134.25 33.362 134.353 33.0805C134.462 32.8078 134.517 32.5169 134.517 32.2234C134.52 31.936 134.483 31.6495 134.406 31.3725C134.332 31.1063 134.216 30.8536 134.062 30.6237C133.882 30.3536 133.675 30.1026 133.444 29.875C133.181 29.6212 132.859 29.3458 132.484 29.0086L131.664 28.3464C131.251 28.0145 130.863 27.6514 130.504 27.2603C130.233 26.965 129.997 26.6389 129.802 26.2888C129.64 25.997 129.518 25.6848 129.44 25.3605C129.378 25.0654 129.347 24.7647 129.347 24.4632C129.339 24.0146 129.426 23.5695 129.604 23.1574C129.773 22.7738 130.026 22.4325 130.343 22.158C130.683 21.865 131.077 21.6421 131.503 21.502C132.003 21.3392 132.526 21.2608 133.051 21.27C133.361 21.2662 133.671 21.2817 133.979 21.3164C134.229 21.3404 134.476 21.3849 134.718 21.4494C134.889 21.4866 135.028 21.5051 135.105 21.5175C135.185 21.5237 135.266 21.5237 135.347 21.5175C135.464 21.5175 135.523 21.5577 135.523 21.6382C135.523 21.8151 135.511 21.9918 135.489 22.1673C135.458 22.4767 135.455 22.9316 135.455 23.5411C135.455 23.8103 135.412 23.9465 135.328 23.9465C135.244 23.9465 135.232 23.9465 135.22 23.8846C135.204 23.8285 135.192 23.7717 135.183 23.7144C135.166 23.5614 135.14 23.4095 135.105 23.2595C135.079 23.1054 135.027 22.9568 134.95 22.8202C134.821 22.5931 134.635 22.4041 134.409 22.2725C134.2 22.1497 133.975 22.055 133.741 21.9909C133.408 21.91 133.065 21.8736 132.723 21.8826C132.16 21.8652 131.611 22.052 131.176 22.4086C130.749 22.7982 130.521 23.3603 130.557 23.9372C130.554 24.175 130.588 24.4117 130.656 24.6396C130.732 24.8802 130.851 25.1054 131.005 25.3048C131.206 25.5786 131.434 25.8316 131.686 26.0598C131.965 26.3228 132.32 26.6198 132.741 26.9509L133.242 27.3439C133.698 27.6996 134.129 28.0852 134.533 28.498C134.836 28.8103 135.105 29.1548 135.334 29.5253C135.523 29.8272 135.659 30.1589 135.736 30.5062C135.859 31.0528 135.876 31.6179 135.786 32.1708C135.735 32.4384 135.657 32.6997 135.551 32.9506C135.429 33.2384 135.273 33.5106 135.087 33.7613C134.876 34.0435 134.619 34.2874 134.325 34.4822C133.947 34.7578 133.518 34.9555 133.063 35.0639C132.58 35.1802 132.084 35.2374 131.587 35.2341Z" fill="#779E7C"/>
<path d="M142.868 29.81V32.1028C142.865 32.6319 142.891 33.1608 142.946 33.687C142.965 33.9141 143.02 34.1366 143.11 34.3461C143.219 34.5354 143.42 34.6531 143.639 34.6555L144.078 34.7081H144.44C144.536 34.7081 144.583 34.7452 144.583 34.8133C144.583 34.8814 144.49 34.9587 144.298 34.9587H140.375C140.186 34.9587 140.09 34.9092 140.09 34.8133C140.09 34.7174 140.136 34.7081 140.232 34.7081H140.495L140.764 34.6555C140.934 34.6273 141.074 34.5085 141.13 34.3461C141.204 34.1324 141.256 33.9115 141.284 33.687C141.339 33.1608 141.365 32.6319 141.362 32.1028V22.257L138.722 22.2942C138.488 22.291 138.253 22.3034 138.02 22.3313C137.841 22.3503 137.664 22.3834 137.491 22.4303C137.236 22.4888 137.014 22.6442 136.872 22.8635C136.776 23.0213 136.708 23.1327 136.665 23.2131C136.628 23.2788 136.596 23.347 136.569 23.4174C136.522 23.5349 136.46 23.5968 136.389 23.5968C136.318 23.5968 136.3 23.5442 136.3 23.4328C136.309 23.3163 136.327 23.2005 136.352 23.0863C136.389 22.9068 136.433 22.7057 136.479 22.4891C136.525 22.2725 136.569 22.0807 136.612 21.9012C136.655 21.7217 136.68 21.6165 136.693 21.5918C136.705 21.567 136.745 21.4618 136.77 21.3814C136.795 21.3009 136.835 21.2545 136.872 21.2545C136.963 21.267 137.05 21.2975 137.129 21.3442C137.297 21.4158 137.476 21.4587 137.658 21.4711L138.478 21.5299H146.489C146.666 21.5249 146.843 21.5052 147.018 21.4711L147.327 21.4061C147.387 21.3999 147.447 21.3999 147.507 21.4061C147.556 21.4061 147.581 21.4061 147.587 21.4649C147.593 21.5163 147.593 21.5682 147.587 21.6196V23.5721C147.587 23.7268 147.544 23.801 147.46 23.801C147.42 23.8073 147.381 23.7857 147.364 23.7484C147.336 23.6677 147.321 23.5832 147.318 23.4978V23.3029C147.305 23.1699 147.262 23.0417 147.191 22.9285C147.108 22.7948 146.989 22.6874 146.848 22.6191C146.639 22.5199 146.417 22.4501 146.189 22.4118C145.839 22.3509 145.485 22.3178 145.13 22.3127L142.881 22.2756L142.868 29.81Z" fill="#779E7C"/>
<path d="M152.173 21.9507C152.24 21.7556 152.319 21.5645 152.408 21.3783C152.454 21.2947 152.507 21.2514 152.569 21.2514C152.631 21.2514 152.68 21.2885 152.73 21.369C152.82 21.5396 152.897 21.7164 152.962 21.8981C153.008 22.0126 153.12 22.2972 153.29 22.7428C153.46 23.1884 153.67 23.7361 153.909 24.3858C154.147 25.0356 154.435 25.7411 154.716 26.4961L155.598 28.7889C155.889 29.5439 156.168 30.2586 156.437 30.9332L157.105 32.6288C157.23 32.9618 157.384 33.2837 157.563 33.5911C157.681 33.7991 157.817 33.9968 157.968 34.1821C158.067 34.3083 158.19 34.4135 158.33 34.4915C158.428 34.5458 158.532 34.5884 158.64 34.6184C158.762 34.6635 158.89 34.6936 159.02 34.7081H159.351C159.466 34.7081 159.531 34.7452 159.531 34.8164C159.531 34.8876 159.494 34.9154 159.419 34.9309C159.339 34.9525 159.255 34.9619 159.172 34.9587H157.291L156.362 34.9309L155.972 34.8999C155.877 34.8999 155.83 34.869 155.83 34.804C155.83 34.739 155.87 34.705 155.951 34.6771C156.017 34.6503 156.069 34.5962 156.093 34.5286C156.128 34.4186 156.117 34.2992 156.062 34.1975L154.404 29.8131C154.376 29.7477 154.311 29.706 154.24 29.7079H150.431C150.347 29.7087 150.275 29.764 150.251 29.844L149.196 33.0156C149.048 33.3963 148.964 33.7987 148.946 34.2068C148.936 34.3701 149.024 34.5237 149.168 34.5998C149.306 34.6806 149.463 34.7243 149.623 34.7267L149.803 34.7267C149.923 34.7267 149.982 34.7638 149.982 34.8319C149.982 34.8999 149.892 34.9742 149.713 34.9742H146.309C146.08 34.9742 145.966 34.9247 145.966 34.8319C145.966 34.739 146.022 34.7267 146.13 34.7267H146.377C146.467 34.7328 146.557 34.7328 146.647 34.7267C147.018 34.6919 147.356 34.4992 147.575 34.1976C147.807 33.8452 147.995 33.466 148.135 33.0682L152.173 21.9507ZM154.029 29.0674C154.104 29.0674 154.128 29.0271 154.104 28.9405L152.408 24.129C152.312 23.8691 152.222 23.8691 152.142 24.129L150.558 28.9652C150.52 29.0519 150.558 29.0921 150.61 29.0921L154.029 29.0674Z" fill="#779E7C"/>
<path d="M161.517 32.5545C161.513 32.8652 161.535 33.1757 161.582 33.4828C161.6 33.6928 161.64 33.9003 161.703 34.1016C161.742 34.2373 161.812 34.3622 161.907 34.4667C161.994 34.5506 162.1 34.6121 162.216 34.6462C162.39 34.6931 162.567 34.7231 162.746 34.7359H163.126C163.222 34.7359 163.269 34.7731 163.269 34.8411C163.269 34.9092 163.163 34.9835 162.959 34.9835C162.43 34.9835 162.031 34.9835 161.691 34.9556H160.453C160.125 34.9556 159.76 34.9835 159.357 34.9835C159.169 34.9835 159.073 34.934 159.073 34.8411C159.073 34.7483 159.122 34.7359 159.215 34.7359H159.525C159.664 34.72 159.802 34.69 159.936 34.6462C160.183 34.559 160.355 34.3346 160.375 34.0738C160.453 33.5121 160.484 32.9449 160.468 32.3782V22.158C160.463 21.921 160.477 21.684 160.512 21.4494C160.543 21.3288 160.592 21.2638 160.666 21.2638C160.741 21.2638 160.833 21.338 160.96 21.4804C161.087 21.6227 161.192 21.7403 161.288 21.8362C161.384 21.9321 161.564 22.1456 161.907 22.5076C162.251 22.8697 162.678 23.3462 163.201 23.9062L164.961 25.7968L166.963 27.9627C167.406 28.4392 167.848 28.9188 168.294 29.4077C168.739 29.8966 169.16 30.3514 169.55 30.7785L170.605 31.914C170.914 32.242 171.134 32.4741 171.267 32.6164L171.066 23.5597C171.079 23.142 171.029 22.7247 170.917 22.322C170.83 22.0882 170.632 21.9139 170.388 21.8579C170.215 21.8228 170.039 21.8001 169.862 21.7898H169.491C169.398 21.7898 169.349 21.7465 169.349 21.6629C169.349 21.5794 169.469 21.5361 169.708 21.5361H172.09C172.338 21.5361 172.681 21.5082 173.052 21.5082C173.263 21.5082 173.362 21.5515 173.362 21.6351C173.362 21.7186 173.294 21.7619 173.161 21.7619H172.966C172.879 21.7707 172.793 21.7872 172.709 21.8115C172.464 21.8405 172.258 22.008 172.18 22.2416C172.092 22.6197 172.057 23.008 172.075 23.3957L172.038 33.8232V34.8968C172.034 34.9518 172.019 35.0054 171.994 35.0546C171.974 35.0795 171.943 35.0933 171.911 35.0918C171.864 35.0868 171.818 35.072 171.778 35.0485C171.7 34.9969 171.626 34.9389 171.558 34.8752C171.462 34.7947 171.341 34.6802 171.193 34.5317L170.611 33.95L170.082 33.4209C169.773 33.1115 169.386 32.7154 168.931 32.2451L167.412 30.698C166.883 30.1689 166.384 29.6429 165.911 29.1138L164.364 27.4769L163.002 25.9701C162.585 25.5059 162.226 25.1037 161.913 24.7664C161.601 24.4292 161.387 24.1754 161.239 24.0052L161.517 32.5545Z" fill="#779E7C"/>
<path d="M176.292 26.6724V22.8202C176.282 22.578 176.221 22.3407 176.113 22.124C175.966 21.9431 175.751 21.831 175.519 21.8146C175.425 21.7843 175.329 21.7677 175.231 21.765H174.921C174.825 21.765 174.779 21.7279 174.779 21.6536C174.779 21.5794 174.875 21.533 175.064 21.5113H177.879C178.21 21.5113 178.588 21.4866 179.003 21.4866C179.612 21.4724 180.219 21.5775 180.788 21.796C181.198 21.957 181.571 22.2002 181.883 22.5107C182.124 22.7557 182.304 23.0534 182.409 23.3802C182.496 23.638 182.545 23.9068 182.555 24.1785C182.558 24.5171 182.509 24.8542 182.409 25.1779C182.317 25.4683 182.19 25.7467 182.032 26.0072C181.872 26.258 181.695 26.4978 181.503 26.725C181.308 26.9509 181.1 27.1737 180.884 27.3841C181.251 27.4984 181.604 27.6508 181.939 27.839C182.309 28.0498 182.645 28.3136 182.938 28.6218C183.248 28.9433 183.501 29.3146 183.687 29.7202C183.895 30.1615 184 30.6436 183.997 31.1312C183.992 32.13 183.585 33.0848 182.867 33.7798C182.459 34.1725 181.975 34.4769 181.444 34.674C180.806 34.9124 180.129 35.0268 179.448 35.0113H178.919L178.155 34.9742C177.895 34.9742 177.657 34.9371 177.44 34.934H175.317C175.129 34.934 175.033 34.8844 175.033 34.7885C175.033 34.6926 175.079 34.6833 175.175 34.6833H175.441L175.71 34.6307C175.878 34.5983 176.016 34.481 176.075 34.3213C176.147 34.1068 176.199 33.8862 176.23 33.6622C176.284 33.1359 176.31 32.6071 176.308 32.078V29.7728L176.292 26.6724ZM177.718 27.0623C177.709 27.1506 177.762 27.2338 177.845 27.2634L178.183 27.3067C178.35 27.3067 178.6 27.3315 178.931 27.3315H179.55C179.691 27.3287 179.832 27.3089 179.968 27.2727C180.077 27.2403 180.182 27.1924 180.277 27.1304C180.378 27.0574 180.47 26.9722 180.55 26.8767C180.751 26.6473 180.908 26.383 181.014 26.0969C181.136 25.7704 181.198 25.4244 181.196 25.0758C181.193 24.7045 181.147 24.3347 181.057 23.9743C180.979 23.6217 180.838 23.2861 180.639 22.9842C180.451 22.6952 180.197 22.4537 179.9 22.2787C179.559 22.0917 179.174 21.9997 178.786 22.0126H178.396C178.239 22.0217 178.084 22.0466 177.932 22.0868C177.79 22.1178 177.715 22.189 177.715 22.2818L177.718 27.0623ZM177.718 28.9529V32.8082C177.709 32.9855 177.722 33.1631 177.756 33.3374C177.759 33.4657 177.785 33.5925 177.833 33.7117C177.87 33.8096 177.928 33.8982 178.003 33.9717C178.095 34.0593 178.199 34.1323 178.313 34.1882C178.441 34.2512 178.576 34.299 178.715 34.3306C178.861 34.3666 179.008 34.3935 179.157 34.411C179.306 34.411 179.442 34.442 179.569 34.4482H179.878C180.146 34.4435 180.413 34.4039 180.67 34.3306C181.305 34.1695 181.838 33.7419 182.134 33.1579C182.317 32.7716 182.405 32.3473 182.391 31.9202C182.391 31.6273 182.363 31.3352 182.307 31.0476C182.253 30.7163 182.16 30.3924 182.032 30.0823C181.894 29.753 181.717 29.4414 181.506 29.154C181.273 28.8415 180.991 28.5687 180.67 28.3464C180.424 28.1733 180.151 28.0407 179.863 27.9534C179.642 27.8975 179.418 27.8551 179.191 27.8266C179.1 27.8137 179.008 27.8055 178.916 27.8018L177.802 27.8018C177.728 27.8018 177.691 27.842 177.691 27.9287L177.718 28.9529Z" fill="#779E7C"/>
<path d="M185.9 26.6724V23.2688C185.905 23.1167 185.896 22.9644 185.872 22.814C185.865 22.5714 185.804 22.3334 185.692 22.1178C185.549 21.938 185.337 21.8259 185.107 21.8084C185.007 21.7767 184.903 21.7601 184.798 21.7589H184.489C184.396 21.7589 184.346 21.7217 184.346 21.6475C184.346 21.5732 184.442 21.5268 184.634 21.5051H188.437C188.629 21.5051 188.725 21.5546 188.725 21.6475C188.725 21.7403 188.675 21.7805 188.582 21.7589H188.39C188.304 21.7676 188.22 21.7842 188.137 21.8084C187.931 21.8233 187.747 21.9393 187.645 22.1178C187.542 22.3413 187.485 22.5834 187.478 22.8295V29.1695C187.472 29.726 187.505 30.2822 187.577 30.8342C187.627 31.2548 187.719 31.6694 187.852 32.0718C187.954 32.3835 188.098 32.68 188.279 32.9537C188.433 33.1828 188.61 33.3954 188.808 33.588C189.17 33.9536 189.613 34.2282 190.102 34.3894C190.559 34.5098 191.03 34.5691 191.503 34.5658C192.58 34.5592 193.603 34.0918 194.313 33.2817C194.741 32.7425 195.026 32.1039 195.142 31.4251C195.286 30.5997 195.354 29.7629 195.346 28.925L195.346 23.275C195.351 23.123 195.343 22.9708 195.321 22.8202C195.315 22.5776 195.253 22.3396 195.142 22.124C194.997 21.944 194.784 21.832 194.554 21.8146C194.454 21.7812 194.35 21.7645 194.245 21.7651H193.935C193.839 21.7651 193.793 21.7279 193.793 21.6537C193.793 21.5794 193.889 21.533 194.078 21.5113H197.481C197.67 21.5113 197.766 21.5608 197.766 21.6537C197.766 21.7465 197.719 21.7867 197.623 21.7651H197.435C197.347 21.775 197.26 21.7915 197.175 21.8146C196.975 21.8445 196.796 21.9567 196.683 22.124C196.583 22.3434 196.525 22.5795 196.513 22.8202C196.516 22.9722 196.508 23.1243 196.488 23.275C196.474 23.4893 196.474 23.7043 196.488 23.9186V28.5939C196.498 29.0856 196.478 29.5775 196.429 30.0668C196.398 30.5533 196.322 31.0359 196.203 31.5087C196.085 31.966 195.917 32.409 195.702 32.8299C195.483 33.2454 195.191 33.6177 194.839 33.9284C194.545 34.1971 194.218 34.4279 193.867 34.6153C193.561 34.7785 193.241 34.9131 192.911 35.0175C192.615 35.1072 192.312 35.1694 192.004 35.2032C191.726 35.231 191.444 35.2496 191.163 35.2496C190.945 35.2521 190.727 35.2418 190.51 35.2186C190.197 35.1933 189.887 35.1437 189.582 35.0701C189.217 34.9782 188.864 34.8486 188.527 34.6833C188.151 34.5029 187.806 34.2661 187.502 33.981C187.282 33.7561 187.08 33.514 186.899 33.2569C186.698 32.9582 186.534 32.6361 186.41 32.2977C186.257 31.879 186.147 31.4456 186.082 31.0043C186.002 30.4366 185.965 29.8635 185.971 29.2901L185.9 26.6724Z" fill="#779E7C"/>
<path d="M201.798 29.8471C201.798 31.156 201.822 32.1213 201.872 32.7526C201.846 33.1676 201.954 33.5799 202.181 33.9284C202.258 34.0044 202.346 34.069 202.441 34.1202C202.564 34.1807 202.696 34.2214 202.831 34.2409C203.032 34.2749 203.233 34.2997 203.45 34.3151H204.332C204.758 34.3182 205.184 34.2934 205.607 34.2409C205.951 34.2098 206.268 34.0428 206.488 33.7767C206.619 33.6181 206.724 33.4394 206.798 33.2476C206.869 33.0774 206.922 32.9 206.956 32.7185C206.956 32.5669 207.036 32.4865 207.113 32.4865C207.191 32.4865 207.225 32.5762 207.225 32.7557V33.0403C207.225 33.2043 207.191 33.3497 207.163 33.523C207.135 33.6963 207.104 33.8819 207.076 34.0521C207.048 34.2223 207.017 34.3615 206.977 34.5193C206.95 34.6054 206.916 34.6891 206.875 34.77C206.847 34.8352 206.795 34.8873 206.73 34.9154C206.631 34.9552 206.527 34.9792 206.42 34.9866L204.18 34.9866L202.896 34.9494C202.515 34.9494 202.184 34.9123 201.9 34.9061H200.353L199.823 34.934H199.353C199.164 34.934 199.068 34.8845 199.068 34.7885C199.068 34.6926 199.115 34.6833 199.211 34.6833H199.48L199.743 34.6307C199.912 34.6025 200.052 34.4837 200.108 34.3213C200.183 34.1076 200.234 33.8867 200.263 33.6623C200.318 33.136 200.344 32.6071 200.34 32.078V23.275C200.345 23.123 200.337 22.9708 200.315 22.8202C200.309 22.5776 200.247 22.3396 200.136 22.124C199.991 21.944 199.778 21.832 199.548 21.8146C199.448 21.7812 199.344 21.7645 199.239 21.7651H198.929C198.833 21.7651 198.787 21.7279 198.787 21.6537C198.787 21.5794 198.883 21.533 199.072 21.5113H203.044C203.233 21.5113 203.329 21.5608 203.329 21.6537C203.329 21.7465 203.283 21.7867 203.187 21.7651H202.927C202.816 21.7709 202.706 21.7875 202.599 21.8146C202.385 21.8303 202.191 21.9447 202.073 22.124C201.969 22.3442 201.911 22.5831 201.903 22.8264C201.906 22.9784 201.898 23.1305 201.878 23.2812C201.864 23.4955 201.864 23.7105 201.878 23.9248V29.8471H201.798Z" fill="#779E7C"/>
<path d="M72.2805 46.1195H69.8361V48.0627H69.3101V43.7524H69.8392V45.6089H72.3146V43.7524H72.8437V48.0627H72.3146L72.2805 46.1195Z" fill="#779E7C"/>
<path d="M77.5778 43.7524L79.5209 48.0627H78.9454L78.5184 47.1189H76.0431L75.6223 48.0627H75.0406L76.9744 43.7524L77.5778 43.7524ZM77.2684 44.2815L76.2535 46.6022H78.2833L77.2684 44.2815Z" fill="#779E7C"/>
<path d="M81.7364 43.7524H82.2624V48.0627H81.7364V43.7524Z" fill="#779E7C"/>
<path d="M86.5417 46.5094H85.4866V48.0565H84.9575V43.7524H86.9161C87.6603 43.6936 88.3126 44.2463 88.3766 44.9901C88.3766 45.0365 88.3766 45.0798 88.3766 45.1232C88.4029 45.4552 88.2943 45.7837 88.0754 46.0347C87.8564 46.2857 87.5456 46.4378 87.2131 46.4568H87.1358L88.5622 48.041H87.8753L86.5417 46.5094ZM87.8413 45.1417C87.8552 44.6552 87.4736 44.2488 86.9873 44.232H85.4959V46.0205H86.8944C87.3615 46.0731 87.7832 45.7384 87.8382 45.2717C87.8422 45.2285 87.8432 45.1851 87.8413 45.1417Z" fill="#779E7C"/>
<path d="M93.3551 44.2351V43.7524H96.8299V44.2351H95.3571V48.0627H94.828V44.2351H93.3551Z" fill="#779E7C"/>
<path d="M100.633 46.5094H99.5776V48.0565H99.0485V43.7524H100.998C101.742 43.6936 102.394 44.2463 102.458 44.9901C102.458 45.0365 102.458 45.0798 102.458 45.1232C102.485 45.4552 102.376 45.7837 102.157 46.0347C101.938 46.2857 101.627 46.4378 101.295 46.4568H101.217L102.644 48.041H101.963L100.633 46.5094ZM101.932 45.1417C101.948 44.6546 101.565 44.2472 101.078 44.232H99.5869V46.0205H100.998C101.222 46.0429 101.446 45.9753 101.62 45.8325C101.794 45.6897 101.904 45.4835 101.926 45.2593C101.931 45.2203 101.933 45.181 101.932 45.1417Z" fill="#779E7C"/>
<path d="M107.059 43.7524L108.993 48.0627H108.402L107.975 47.1189H105.5L105.079 48.0627H104.491L106.44 43.7524H107.059ZM106.75 44.2815L105.75 46.6208H107.802L106.75 44.2815Z" fill="#779E7C"/>
<path d="M111.561 43.7524L114.204 47.0539V43.7524H114.73V48.0627H114.362L111.719 44.7766V48.0627H111.193V43.7524H111.561Z" fill="#779E7C"/>
<path d="M118.957 44.1268C118.427 44.1268 117.827 44.3434 117.827 44.8664C117.827 45.3893 118.353 45.4852 118.994 45.578C119.86 45.7111 120.711 45.8875 120.711 46.8559C120.711 47.8244 119.761 48.1246 118.957 48.1246C118.203 48.1894 117.484 47.7953 117.134 47.1251L117.58 46.8683C117.873 47.3481 118.4 47.6357 118.963 47.6233C119.489 47.6233 120.182 47.4593 120.182 46.825C120.182 46.2959 119.585 46.135 118.944 46.0329C118.109 45.906 117.301 45.7235 117.301 44.8385C117.301 43.9536 118.211 43.6287 118.953 43.6287C119.592 43.5721 120.208 43.8812 120.544 44.427L120.138 44.6745C119.853 44.3154 119.415 44.1124 118.957 44.1268Z" fill="#779E7C"/>
<path d="M123.61 48.0626H123.081V43.7524H125.043C125.573 43.7067 126.086 43.9524 126.383 44.3941C126.68 44.8358 126.714 45.4039 126.471 45.8777C126.229 46.3514 125.748 46.6561 125.216 46.6734C125.158 46.6764 125.101 46.6764 125.043 46.6734H123.61V48.0626ZM125.043 44.2506H123.61V46.1721H125.043C125.552 46.1432 125.951 45.7216 125.951 45.2113C125.951 44.7011 125.552 44.2795 125.043 44.2506Z" fill="#779E7C"/>
<path d="M129.372 47.5676H131.723V48.0627H128.839V43.7524H129.368L129.372 47.5676Z" fill="#779E7C"/>
<path d="M136.018 43.7524L137.955 48.0627H137.382L136.955 47.1189H134.496L134.078 48.0627H133.49L135.424 43.7524L136.018 43.7524ZM135.709 44.2815L134.697 46.6022H136.742L135.709 44.2815Z" fill="#779E7C"/>
<path d="M140.548 43.7524L143.19 47.0539V43.7524H143.719V48.0627H143.348L140.709 44.7766V48.0627H140.167V43.7524H140.548Z" fill="#779E7C"/>
<path d="M145.947 44.2351V43.7524H149.416V44.2351H147.949V48.0627H147.42V44.2351H145.947Z" fill="#779E7C"/>
<path d="M153.921 44.2351V43.7524H157.399V44.2351H155.929V48.0627H155.4V44.2351H153.921Z" fill="#779E7C"/>
<path d="M163.086 43.7586V46.3454C163.12 46.7895 162.976 47.2288 162.686 47.5667C162.396 47.9045 161.983 48.113 161.539 48.1462C161.471 48.1462 161.403 48.1462 161.332 48.1462C160.4 48.19 159.608 47.4718 159.562 46.5403C159.562 46.4753 159.562 46.4104 159.562 46.3423V43.7555H160.091V46.3423C160.091 47.0258 160.645 47.58 161.329 47.58C162.012 47.58 162.566 47.0258 162.566 46.3423V43.7555L163.086 43.7586Z" fill="#779E7C"/>
<path d="M167.313 46.5094H166.255V48.0565H165.728V43.7524H167.687C168.43 43.6937 169.081 44.2472 169.141 44.9901C169.141 45.0334 169.141 45.0798 169.141 45.1263C169.168 45.4567 169.06 45.784 168.844 46.0347C168.627 46.2854 168.318 46.4385 167.987 46.4599H167.907L169.327 48.0441H168.649L167.313 46.5094ZM168.612 45.1417C168.617 44.9051 168.528 44.6764 168.363 44.5061C168.199 44.3359 167.973 44.2384 167.737 44.2351H166.261V46.0236H167.659C168.121 46.0671 168.532 45.7349 168.587 45.2748C168.591 45.2305 168.591 45.186 168.587 45.1417H168.612Z" fill="#779E7C"/>
<path d="M171.654 43.7524H172.183V45.6554L174.089 43.7524H174.764V43.7865L172.694 45.8286L174.949 48.0255V48.0627H174.284L172.171 46.0391V48.0627H171.645L171.654 43.7524Z" fill="#779E7C"/>
<path d="M177.056 43.7524H180.082V44.2444H177.579V45.5966H179.971V46.0947H177.579V47.5552H180.219V48.0843H177.056V43.7524Z" fill="#779E7C"/>
<path d="M182.19 43.7679H182.867L184.161 45.8132L185.488 43.7679H186.138L184.436 46.3144V48.0627H183.882V46.3144L182.19 43.7679Z" fill="#779E7C"/>
</svg>
