<svg xmlns="http://www.w3.org/2000/svg" width="154.572" height="70.453" viewBox="0 0 154.572 70.453">
  <g id="basın_ap" data-name="basın ap" transform="translate(0)">
    <path id="Path_522" data-name="Path 522" d="M90.394,0H80.644L54.07,39.293H65.319l3.438-5.743L79.1,33.493V24.615H74.65l5.842-9.647.151,24.3H90.4Zm11.331,15.762h3.553a4.534,4.534,0,0,1,4.661,4.221V21.1a4.1,4.1,0,0,1-4,4h-2.7v8.441h7.549a9.707,9.707,0,0,0,6.934-4.168,16.35,16.35,0,0,0,2.174-8.926c0-8.082-6.843-13.127-14.883-13.127H91.886V46.408h9.755Z" transform="translate(-9.707)" fill="gray" fill-rule="evenodd"/>
    <path id="Path_523" data-name="Path 523" d="M154.252,74.59C154.031,71.53,151.5,71,149.379,71c-3.388,0-4.389,2.042-4.389,3.627,0,4.1,6.729,2.7,6.729,4.513,0,.41-.345,1.124-1.809,1.124-1.8,0-2.371-.672-2.371-1.592h-2.944c.081,2.9,2.757,3.758,5.226,3.758,1.641,0,4.751-.574,4.751-3.734,0-4-6.794-2.757-6.794-4.472,0-.467.205-1.055,1.756-1.055s1.8.73,1.92,1.427Zm-10.306,0C143.718,71.53,141.19,71,139.065,71c-3.388,0-4.382,2.042-4.382,3.627,0,4.1,6.729,2.7,6.729,4.513,0,.41-.345,1.124-1.809,1.124-1.8,0-2.371-.672-2.371-1.592h-2.941c.081,2.9,2.757,3.758,5.226,3.758,1.641,0,4.751-.574,4.751-3.734,0-4-6.794-2.757-6.794-4.472,0-.467.205-1.055,1.756-1.055s1.8.73,1.92,1.427Zm-17.165,1.042c.164-1.427.877-2.281,2.223-2.281a2.195,2.195,0,0,1,2.207,2.281Zm4.308,3.331a1.854,1.854,0,0,1-1.837,1.182c-2.306,0-2.461-1.837-2.552-2.65h7.434v-.517c0-4.923-2.962-5.974-5.1-5.974a5.033,5.033,0,0,0-5.2,5.481c0,4.472,2.347,5.94,5.407,5.94a4.7,4.7,0,0,0,4.775-3.467Zm-13.53,3.2h2.864V76.518a2.3,2.3,0,0,1,2.626-2.585,4.546,4.546,0,0,1,.82,0V71.078h-.55a3.176,3.176,0,0,0-2.978,2.159H120.3v-1.96h-2.748ZM108.3,74.349V70.02h2.461c1.895,0,2.691.591,2.691,2.018,0,.656,0,2.29-2.281,2.29Zm0,2.562h3.512a4.48,4.48,0,0,0,4.7-4.709,4.281,4.281,0,0,0-4.546-4.694h-6.718V82.163H108.3Zm-17.23-.057c0-1.715.615-3.281,2.461-3.281,1.96,0,2.461,1.747,2.461,3.5,0,1.641-.722,3.117-2.535,3.117s-2.347-1.994-2.347-3.281Zm7.614-9.3H95.834v5.2h-.041a3.5,3.5,0,0,0-3.143-1.641c-2.388,0-4.513,1.837-4.513,5.588,0,2.978,1.346,5.842,4.57,5.842A3.455,3.455,0,0,0,95.851,80.9h0v1.357h2.8Zm-18.181,8.1c.164-1.427.877-2.281,2.232-2.281a2.193,2.193,0,0,1,2.2,2.281Zm4.308,3.331a1.847,1.847,0,0,1-1.837,1.215c-2.306,0-2.461-1.837-2.552-2.65h7.452v-.55c0-4.923-2.954-5.974-5.1-5.974a5.042,5.042,0,0,0-5.2,5.481c0,4.472,2.347,5.94,5.407,5.94A4.694,4.694,0,0,0,87.8,78.975ZM75.788,68.363H72.917V71.3H71.423v2.042h1.468v6.564c0,1.4.452,2.347,2.921,2.347h1.715V80.077h-.591c-1.165,0-1.182-.238-1.182-.877V73.321h1.773V71.283H75.764Zm-7.745,9.9a2.363,2.363,0,0,1-2.552,2.142,1.239,1.239,0,0,1-1.32-1.3c0-1.189.877-1.452,1.937-1.641a4.282,4.282,0,0,0,1.937-.55Zm2.8-4.1c0-2.676-2.8-3.143-4.325-3.143-2.232,0-4.522.467-4.857,3.808H64.42a1.534,1.534,0,0,1,1.752-1.518c.739,0,1.88.057,1.88,1.263,0,.6-.55.82-1,.82l-2.562.386a3.327,3.327,0,0,0-3.165,3.467A3.052,3.052,0,0,0,64.6,82.412a4.43,4.43,0,0,0,3.512-1.559,4.923,4.923,0,0,0,.271,1.289h3.06V81.72c-.345-.124-.632-.41-.632-1.641ZM60.34,67.37H57.476v2.65H60.34Zm-2.864,3.939V82.148H60.34V71.283Zm-3.939,6.917A1.985,1.985,0,0,1,51.6,80.12c-2.166,0-2.207-2.347-2.207-3.529,0-1.357.467-3.143,2.261-3.143h.151A1.837,1.837,0,0,1,53.552,75.2h2.9a4.433,4.433,0,0,0-4.792-4.16c-3.66,0-5.2,2.511-5.2,6.029,0,2.29.936,5.407,5.013,5.407a4.661,4.661,0,0,0,4.964-4.242Zm-10.56-1.485c0,1.37-.4,3.281-2.609,3.281s-2.626-1.895-2.626-3.281.41-3.281,2.617-3.281,2.618,1.893,2.618,3.28Zm2.945,0A5.3,5.3,0,0,0,40.368,71a5.746,5.746,0,0,0,0,11.487,5.321,5.321,0,0,0,5.577-5.743Zm-11.84-2.125c-.229-3.06-2.757-3.593-4.882-3.593-3.388,0-4.389,2.042-4.389,3.634,0,4.1,6.736,2.691,6.736,4.513,0,.41-.345,1.124-1.809,1.124-1.8,0-2.371-.672-2.371-1.592H24.419c.081,2.9,2.749,3.758,5.218,3.758,1.641,0,4.759-.574,4.759-3.741,0-4-6.794-2.749-6.794-4.463,0-.476.2-1.067,1.747-1.067s1.8.739,1.92,1.427Zm-10.289,0c-.222-3.06-2.757-3.593-4.873-3.593-3.388,0-4.389,2.042-4.389,3.634,0,4.1,6.736,2.691,6.736,4.513,0,.41-.353,1.124-1.821,1.124-1.789,0-2.363-.672-2.363-1.592H14.121c.081,2.9,2.757,3.758,5.218,3.758,1.682,0,4.759-.574,4.759-3.741,0-4-6.794-2.749-6.794-4.463,0-.476.2-1.067,1.756-1.067s1.789.739,1.911,1.427ZM6.941,70.808h0L8.762,76.6H5.071Zm-2.7,8.328H9.657l.936,3.015h3.355L8.755,67.525H5.226L0,82.187H3.224Z" transform="translate(0 -12.092)" fill="gray" fill-rule="evenodd"/>
  </g>
</svg>
