<svg id="basın_bloomberg" data-name="basın bloomberg" xmlns="http://www.w3.org/2000/svg" width="237.032" height="43.724" viewBox="0 0 237.032 43.724">
  <path id="Path_524" data-name="Path 524" d="M0,0H17.37A12.307,12.307,0,0,1,25,2.2a8.657,8.657,0,0,1,3.126,6.983,6.766,6.766,0,0,1-4.1,6.8v.188a8.482,8.482,0,0,1,5.793,8.452,10.369,10.369,0,0,1-3.865,8.55,13.313,13.313,0,0,1-8.123,2.1H0ZM15.631,13.781a2.936,2.936,0,0,0,3.241-3.117A2.877,2.877,0,0,0,15.59,7.628H9.561v6.062h6.07Zm.82,13.7A3.405,3.405,0,0,0,20.135,23.9a3.358,3.358,0,0,0-3.684-3.586h-6.8v7.261h6.8ZM31.343,0h9.1V35.386h-9.1ZM42.281,22.79c0-7.989,5.152-13.325,13.127-13.325S68.454,14.892,68.454,22.79,63.424,36.1,55.432,36.1,42.281,30.79,42.281,22.79Zm17.1,0c0-4.406-1.378-7.163-4.1-7.163s-4.046,2.757-4.046,7.163,1.289,7.261,4.046,7.261S59.38,27.2,59.38,22.79Zm10.117,0c0-7.989,5.145-13.325,13.127-13.325S95.587,14.8,95.587,22.79,90.55,36.1,82.558,36.1,69.5,30.79,69.5,22.79Zm17.092,0c0-4.406-1.378-7.163-4.1-7.163S78.44,18.385,78.44,22.79s1.289,7.261,4.046,7.261,4.1-2.846,4.1-7.261ZM97.434,10.108h8.459v3.768h.188a7.989,7.989,0,0,1,7.623-4.5,6.965,6.965,0,0,1,6.8,4.315h.188a8.361,8.361,0,0,1,7.811-4.315c5.879,0,8.369,4.315,8.369,10.108v15.8h-8.828V21.051c0-2.576-.82-4.234-3.036-4.234s-3.281,2.027-3.281,4.783V35.28h-8.845V21.051c0-2.576-.82-4.234-3.036-4.234s-3.28,2.033-3.28,4.784V35.28h-9.11ZM147.992,32h-.09V35.28h-8.418V0h8.828V12.682h.181a8.369,8.369,0,0,1,7.17-3.4c6.343,0,10.018,5.695,10.018,13.325-.041,8.566-3.987,13.489-10.609,13.489a7.787,7.787,0,0,1-7.084-4.1Zm8.55-9.469c0-4.046-1.468-6.712-4.1-6.712s-4.419,2.666-4.419,6.712,1.747,6.712,4.415,6.712,4.1-2.585,4.1-6.72Zm10.108.181c0-7.9,5.242-13.325,12.784-13.325a12.135,12.135,0,0,1,8.821,3.286c2.945,2.847,4.234,7.261,4.1,12.405H175.476c.369,3.126,1.837,4.783,4.5,4.783a3.467,3.467,0,0,0,3.5-2.388h8.516c-1.444,5.809-5.948,8.631-12.307,8.631-7.811-.09-13.053-5.426-13.053-13.423Zm8.828-2.666h8.09c-.188-3.028-1.837-4.594-3.955-4.594-2.478-.1-3.856,1.649-4.135,4.587Zm26.937-5.6h.181c1.837-3.5,4.221-4.873,7.261-4.873a2.667,2.667,0,0,1,1.468.279v7.713h-.181c-5.242-.919-8.271,1.559-8.271,7.261V35.386h-8.919V10.108h8.459Zm9.846,20.952h8.533a3.411,3.411,0,0,0,3.586,2.11c2.847,0,3.865-1.747,3.865-4.415V31.25h-.151a7.537,7.537,0,0,1-6.064,2.847c-5.426,0-10.208-4.046-10.208-11.947,0-7.261,3.865-12.865,9.748-12.865a7.446,7.446,0,0,1,6.8,3.486h.181V10.016h8.459V31.9a11.735,11.735,0,0,1-3.5,9.026,13.477,13.477,0,0,1-8.91,2.764c-6.81.09-11.487-2.666-12.307-8.278Zm16.361-13.6c0-3.126-1.468-5.695-4.037-5.695s-4.046,2.2-4.046,5.695,1.559,5.793,4.046,5.793,4.02-2.495,4.02-5.8Z" transform="translate(0 0.017)" fill="gray"/>
</svg>
