<svg xmlns="http://www.w3.org/2000/svg" width="356.04" height="57.941" viewBox="0 0 356.04 57.941">
  <g id="basın_dailymail" data-name="basın dailymail" transform="translate(0)">
    <path id="Path_525" data-name="Path 525" d="M356.52,35.99v-.05Z" transform="translate(-63.997 -6.452)" fill="gray"/>
    <path id="Path_526" data-name="Path 526" d="M204.16,50.17Z" transform="translate(-36.647 -9.006)" fill="gray"/>
    <path id="Path_527" data-name="Path 527" d="M211.29,49.86Z" transform="translate(-37.927 -8.949)" fill="gray"/>
    <path id="Path_528" data-name="Path 528" d="M212.284,50.043a1.3,1.3,0,0,1,.345.05l-.151-.353-1.189.1s.2.057.2.151l.05,1.584-.1.1,1.141-.151v-.333s-.151.151-.246.151h-.345V50.78h.3a.3.3,0,0,1,.2.1l-.05-.443a.706.706,0,0,0-.151.1h-.3V50.04Z" transform="translate(-37.928 -8.928)" fill="gray"/>
    <path id="Path_529" data-name="Path 529" d="M215.121,49.43l-1.132.1h-.1v.05h0l.05.393c.1-.2.443-.2.443-.2l.05,1.436-.1.107.591-.107-.1-.05-.024-1.436a.452.452,0,0,1,.452.05l-.05-.393Z" transform="translate(-38.394 -8.864)" fill="gray"/>
    <path id="Path_530" data-name="Path 530" d="M208.171,50.258v.984s.05.452-.3.5c0,0-.3.05-.353-.345V50.4a1.1,1.1,0,0,1,.1-.246l-.739-.05h0a.567.567,0,0,1,.2.2V51.3a.754.754,0,0,0,.754.739.82.82,0,0,0,.739-.7V50.308a.239.239,0,0,1,.05-.151h-.541Z" transform="translate(-37.138 -8.995)" fill="gray"/>
    <path id="Path_531" data-name="Path 531" d="M331.084,36.455a5.743,5.743,0,0,1-3.028-4.415V6.359s.353-.151-.443-.648L318.145.164S317.9-.336,317,.41l-8.078,5.054-8.036-4.456A.6.6,0,0,0,300.152.9c-.648.4-10.165,5.457-10.165,5.457l-7.041-4.1s-.345-.493-.754-.151l-7.73,4.923s-1.091.4.443,1.247h0l.255.1,5.359,3.865V34.961l-2.781,1.592s-.886.443-.05.984l9.764,5.125,7.491-4.221a.6.6,0,0,0,.1-.984l-1.792-1.131V26.206h5.342v7.877l-2.461,1.542s-.82.393.246,1.091l11.208,5.948,7.537-4.709s.82-.1.3-.7L311.79,34.8V25.775l5.2-7.5h-5.226V7.368l4.873,2.461a1.272,1.272,0,0,1,.739,1.042V35.461s.6,5.1,6.892,7.235l7.187-5.2S331.838,37.046,331.084,36.455Zm-39.662-1.247s-.443-.1-.443-.238l.1-26.478s.081-.927,1.452-.951h0l.05,28.4Zm7.139-16.9h-.939l-4.394,6.564h0V7.737L297.9,10.2a2.273,2.273,0,0,1,.689.82ZM311.015,7.084l.041,11.216h-1.189v-.815l-.1-9.936S309.538,6.632,311.015,7.084Zm-.5,26.879s-.6-.246-.648-.443V26.256h1.215V34.4Z" transform="translate(-49.203 0)" fill="gray"/>
    <path id="Path_532" data-name="Path 532" d="M205.2,50.416a1.14,1.14,0,0,1,.443.1l-.05-.345h-1.436a.689.689,0,0,1,.246.2V51.9a.345.345,0,0,1-.2.1s-.05,0,0,.057h.3l1.091.041V51.67a.541.541,0,0,1-.345.151h-.345v-.558h.2l.246.05.05-.452-.345.1h-.151v-.541Z" transform="translate(-36.648 -9.006)" fill="gray"/>
    <path id="Path_533" data-name="Path 533" d="M202.859,50.431s-.05-.3.151-.393l-.739-.057h0a.574.574,0,0,1,.151.353v1.436s0,.1-.2.246l.82.05-.2-.3Z" transform="translate(-36.297 -8.971)" fill="gray"/>
    <path id="Path_534" data-name="Path 534" d="M199.318,49.739l.1.255V51.43l-.151.151a1.592,1.592,0,0,0,.936.1.936.936,0,0,0,.556-1.545S200.414,49.7,199.318,49.739Zm1.189,1.239a.558.558,0,0,1-.648.4l.05-1.387a.624.624,0,0,1,.5.393.82.82,0,0,1,.1.591Z" transform="translate(-35.772 -8.927)" fill="gray"/>
    <path id="Path_535" data-name="Path 535" d="M230.817,27.38l-.7-.6-.641.6.641.443Z" transform="translate(-41.194 -4.809)" fill="gray"/>
    <path id="Path_536" data-name="Path 536" d="M258.936,49.69h0s-.82-.107-.936,1.034c0,0,.041,1.042.886,1.141a1.025,1.025,0,0,0,.993-.993S259.88,49.631,258.936,49.69Zm0,1.928c-.246.05-.345-.3-.345-.3-.3-.944.1-1.239.1-1.239l.246-.1c.5.041.452.82.452.82a.754.754,0,0,1-.452.779Z" transform="translate(-46.312 -8.918)" fill="gray"/>
    <path id="Path_537" data-name="Path 537" d="M212.481,27.749s.151-.452.393.1a.984.984,0,0,0,.246.689,1.4,1.4,0,0,0,.467,0,1.675,1.675,0,0,1-.066.591c-.066.115-.55.443-1.091-.5,0,0,.05,1.141,1.732,2.133a1.642,1.642,0,0,0,.452-1.239.443.443,0,0,0,.151-.648s.246-.2,0-.886a1.067,1.067,0,0,1-.55.886.517.517,0,0,1-.534-.362.558.558,0,0,0,.386-.329s.3-.05-.05-.648a.493.493,0,0,1,.255-.541.894.894,0,0,0,.541-.944.705.705,0,0,1-.591.3s-.55-.05-.55.754a3.444,3.444,0,0,1,.2.541s.3.246.1.5a1.141,1.141,0,0,1-.739.2,1.215,1.215,0,0,1-.151-.6.574.574,0,0,0-.82-.493s-.246.3-.944.1h0a.754.754,0,0,0,1.173.41Zm1.239,1.28a.984.984,0,0,0,.648.107,1.969,1.969,0,0,1-.205,1.132,2.232,2.232,0,0,1-.936-.739s.345.05.493-.5Z" transform="translate(-37.929 -4.676)" fill="gray"/>
    <path id="Path_538" data-name="Path 538" d="M212.917,40.47a.6.6,0,0,0,.345-.1,2.38,2.38,0,0,1-.4-.3,8.911,8.911,0,0,1-1.78-2.035h0s-.3-.05-.05.452a5.826,5.826,0,0,0,1.887,1.982Z" transform="translate(-37.863 -6.83)" fill="gray"/>
    <path id="Path_539" data-name="Path 539" d="M211.781,40.781s.107.151.4.1c0,0,.1-.246-.246-.345a5.464,5.464,0,0,1-1.837-1.985s-.345-.238-.1.3a3.143,3.143,0,0,0,1.78,1.928Z" transform="translate(-37.679 -6.909)" fill="gray"/>
    <path id="Path_540" data-name="Path 540" d="M226.822,27.91c.246-.05.443-.151.443-.3s-.246-.151-.493-.1-.493.151-.493.246S226.526,27.951,226.822,27.91Z" transform="translate(-40.619 -4.935)" fill="gray"/>
    <path id="Path_541" data-name="Path 541" d="M263.29,49.532l-.05-.393-.1.05-.894.2H262.1l.05.5.151-.151.255-.041v1.584l-.057.151.5-.1-.05-.151V49.532Z" transform="translate(-47.049 -8.82)" fill="gray"/>
    <path id="Path_542" data-name="Path 542" d="M233.364,27.839c.3.05.5,0,.5-.151s-.2-.2-.452-.246-.493,0-.493.151S233.118,27.791,233.364,27.839Z" transform="translate(-41.811 -4.925)" fill="gray"/>
    <path id="Path_543" data-name="Path 543" d="M211.162,41.275a3.676,3.676,0,0,1-1.141-.894,8.645,8.645,0,0,1-.944-1.042l-.151-.05s-.05.151.151.55a2.713,2.713,0,0,0,2.085,1.435Z" transform="translate(-37.504 -7.052)" fill="gray"/>
    <path id="Path_544" data-name="Path 544" d="M257.045,32.706a2.6,2.6,0,0,0-.541-1.189l-.05-.05a2.872,2.872,0,0,0-1.641-2.462,1.108,1.108,0,0,0-.648-.255,2.674,2.674,0,0,1-.944-.739,2.15,2.15,0,0,0-.1,2.076,35.885,35.885,0,0,0-5.948.82A7.556,7.556,0,0,1,244,30.563c-1.239-.7-1.042-1.584-1.042-1.584a1.289,1.289,0,0,1,1.427-1.239h.345a2.912,2.912,0,0,1,1.789.205c2.076.984,5.793,0,5.793,0a4.483,4.483,0,0,0,2.281-3.028,2.954,2.954,0,0,1-2.33.894,5.748,5.748,0,0,0-.739.2,2.083,2.083,0,0,1,1.182-1.239,3.176,3.176,0,0,0-2.675.393,4.627,4.627,0,0,1-2.232.993,3.724,3.724,0,0,0,1.739-1.682,4.4,4.4,0,0,1-2.089.342,6.169,6.169,0,0,0-4.258,1.437,3.467,3.467,0,0,0-1.042,3.963,2.526,2.526,0,0,0,1.485,1.289,6.564,6.564,0,0,0,1.928.55,40.63,40.63,0,0,0,6.5-.246,4.054,4.054,0,0,1,.82-.1,3.175,3.175,0,0,0-.944,1.937,4.3,4.3,0,0,1,1.387-.3l-.05.2a5.383,5.383,0,0,1,1.732,0,.541.541,0,0,0,.6-.393c.6.886-.6,1.88-.6,1.88-.689.7-2.223.151-2.223.151a12.751,12.751,0,0,0-3.028-.55,23.687,23.687,0,0,0-4.923-1.387.541.541,0,0,0-.7-.246l-.393-.05a.82.82,0,0,0-1.289-.393,8.508,8.508,0,0,1-2.281-1.042,1.828,1.828,0,0,1-.443-.3,8.2,8.2,0,0,0,2.223-5.457,4.87,4.87,0,0,0-3.618-4.709,2.543,2.543,0,0,0-2.076-1.289l-.1.246.14.353a2.012,2.012,0,0,0,.255.689l-.648.151-4.013-2.33c-.993-.246-.591.6-.591.6l.2.3,3.467,2.724a6.679,6.679,0,0,1-1.534,1.592l-.452.1-.55.591.05.82a1.64,1.64,0,0,1-.82.2l-.041.5c.345.493,1.337.493,1.337.493l.82.82a.377.377,0,0,0,.452-.05l.689-.82.944-.443a2.207,2.207,0,0,0,.7.2,4.259,4.259,0,0,0-1.337,1.189,3.84,3.84,0,0,0-1.436.05l-.107.541v.131l-.214-.131a.82.82,0,0,0-1.444-.541,1.125,1.125,0,0,0-.09,1.42h0l.124.14-.066.115a.279.279,0,0,0-.115-.041.386.386,0,0,0-.345.4l-.05-.05-.393-.452-.151-.151-.894-.944c-1.042-1.387-2.626,0-2.626,0l-.246-.2a.656.656,0,0,0,.1-1.141l1.641-4.209-.443-.55c.82-1.642-.894-1.682-.894-1.682-.493-1.494-1.387-.82-1.387-.82-.3-1.437-1.394-.7-1.394-.7a.87.87,0,0,0-1.337-.393l.05-2.33-1.084.05-1.2-.05.1,2.38a.87.87,0,0,0-1.387.6c-1.387-.82-1.387.739-1.387.739-1.141-.345-1.091.754-1.091.754a1.313,1.313,0,0,0-1.337,1.485l1.189,4.1a62.253,62.253,0,0,1-3.815,5.063l-1.518-.467-.1-.246a.739.739,0,0,0,.6.1,4.25,4.25,0,0,1,.05-1.485c.443-1.928-.345-2.626-.345-2.626a3.858,3.858,0,0,0-.5-1.739c.754-.936-.345-1.88-.345-1.88l-.151-.255-.05-2.027c-.2,0-.3-.255-.3-.255-.3-.82-.82-.3-.82-.3a.582.582,0,0,0-1.042-.2.632.632,0,0,0-1.091,0l-.427-1.461-1.485.591.5,1.592c-1.1-.255-.754.82-.754.82-.944.05-.5.894-.5.894-.886.1-.541,1.091-.541,1.091l.993,1.642c-.82.894-.05,1.494-.05,1.494.246.443.541.443.541.443a4.292,4.292,0,0,0,.151,2.724,8.657,8.657,0,0,1-2.461,1.789,15.673,15.673,0,0,1-2.347.927c-1.928.443-5.743,1.682-5.743,1.682-1.346.345-3.467.993-3.467.993-2.676.82-3.372-.05-3.372-.05-.648-.4-.151-1.444-.151-1.444a3.165,3.165,0,0,1,1.985-1.584,8.936,8.936,0,0,1,1.289.944,2.388,2.388,0,0,0,1.641.541l.05-.2a1.468,1.468,0,0,0,.754-.1.968.968,0,0,1-.3-.641c0-.246-.345-.648-.345-.648l6.892-.3c.246-.05.443-.05.641-.1a6.267,6.267,0,0,0,2.929-.993,3.282,3.282,0,0,0,.944-3.422,3.331,3.331,0,0,0-2.626-2.183,5.743,5.743,0,0,0-2.33-.151,10.477,10.477,0,0,1-2.281-.345c-.05.3.591,1.239.591,1.239a1.7,1.7,0,0,1-1.239-.393,2.461,2.461,0,0,0-2.085-.4,9.09,9.09,0,0,0,1.394,1.394,9.647,9.647,0,0,1-2.576-.754,5.178,5.178,0,0,0,2.232,2.774,5.251,5.251,0,0,0,4.16-.05,11.359,11.359,0,0,1,1.887-.936,1.075,1.075,0,0,1,1.427.534,1.2,1.2,0,0,1,.057.151c-.1,1.69-1.337,1.74-1.337,1.74a32.9,32.9,0,0,1-8.328.246,3.782,3.782,0,0,0,.393-1.592l-.393.107c-2.085-.205-2.633.246-2.633.246a3.06,3.06,0,0,0-1.091,1.387,8.017,8.017,0,0,0-2.232,1.387,5.03,5.03,0,0,0-1.534,2.831c-.1,1.78.894,2.035.894,2.035-.894,1.732.443,2.38.443,2.38a3.029,3.029,0,0,0,.82-.944,17.4,17.4,0,0,1,4.661-1.642,5.014,5.014,0,0,0-1.091,2.183,3.193,3.193,0,0,1-1.592-.151c-.541-.05-.541.393-.541.393l-.246.6-.353,1.091c-2.125-.1-1.83,1.141-1.83,1.141l-.3,3.282c.493,1.239,1.289,1.042,1.289,1.042V44.539h.541a3.06,3.06,0,0,0,1.642,1.642h.3c.345-.1.493.393.493.393l.353.05.05-.82.393-.041c.246.1.393.493.393.493h.3a3.174,3.174,0,0,0,.151-.754c.4-.246.3-1.132.3-1.132a3.545,3.545,0,0,1,1.642.151l-.05.739a2.273,2.273,0,0,0,1.357,1.108,10.058,10.058,0,0,0,2.133.3c1.534.1,3.467.05,5.259,0,1.937-.1,3.865-.246,5.8-.443.2.3.3.246.3.246.82.3,1.78-.6,1.78-.6l-.3.6a3.388,3.388,0,0,0,1.337-.5,1.378,1.378,0,0,0,.7.5l.151-.151.2.3a1.9,1.9,0,0,0,.648-.894,1.437,1.437,0,0,0,1.091.3l.2.3.151-.255a6.753,6.753,0,0,0,.82.452,2.461,2.461,0,0,0,.315-1.786l.151.246.151-.591a1.263,1.263,0,0,0,.82.3c-.944.393-.4,1.091-.4,1.091a1.132,1.132,0,0,0,.5.443.632.632,0,0,1,.7.5c.739.345,1.189-.452,1.189-.452l.1-.591a2.8,2.8,0,0,1-.151-.894l.151.648.246.151,1.641,1.337L223.87,45.7a3.782,3.782,0,0,0,1.88.541c.4,0,.107-.493.107-.493a4.775,4.775,0,0,0,3.217.82c.3-.246.1-.393.1-.393.353-.151.944.345.944.345a1.507,1.507,0,0,0,1.239.05.393.393,0,0,0-.3-.3c.345,0,.151-.5.151-.5a1.255,1.255,0,0,1,.648.443.9.9,0,0,0,.82.3l.05-.246a2.912,2.912,0,0,0,1.141.3.452.452,0,0,0,.05-.5,32.749,32.749,0,0,0,8.869.894c6.892-.05,7.838-1.387,7.838-1.387a.641.641,0,0,0,.1-.648v-.393a1.411,1.411,0,0,1,.894-.05l-.5,1.042-.14.353c1.182,1.329,2.969-.151,2.969-.151v-.443a1.92,1.92,0,0,0,.641-.55l.82.205a1.507,1.507,0,0,1-.205.944,1.411,1.411,0,0,0,1.682-.944l-.641-3.331a3.536,3.536,0,0,0-2.76-.966l-.074-.82a.977.977,0,0,0-.754-.541l-.378-.146-.362.14h-1.337l.1-1.149v-1.3l-.1-.452,1.042.151a9.371,9.371,0,0,0,2.633.345.968.968,0,0,1,.591.82l-.2.7c1.641-.151,1.485-2.035,1.485-2.035C257.348,35.38,257.045,32.706,257.045,32.706Zm-12.662,1.042.493.7s-.82.641.4,1.189l.041.3a7.024,7.024,0,0,0-3.015.452,5.251,5.251,0,0,1-2.576.739,6.851,6.851,0,0,1-3.224-.541A5.382,5.382,0,0,0,237,34.5a1.115,1.115,0,0,0-.057-.55s-.151-.14-.151.2c0,0-.443,2.133-1.084,2.585a.82.82,0,0,0-.205.393s-2.281-.393-2.921-.591a11.068,11.068,0,0,0-2.626-.55s-.6-.353-1.74.641a3.594,3.594,0,0,0-.591,1.74s.944,1.337-.151,2.035a5.314,5.314,0,0,0,.151-.6s-.05-.3-.3-.345a1.068,1.068,0,0,0,.041.541s.057.6-.1.7c0,0-1.042.151-1.387-.353h0a6.8,6.8,0,0,1,.7-2.174l.641-2.232a3.093,3.093,0,0,1,.82-1.289,1.994,1.994,0,0,1,1.584-.246,25.827,25.827,0,0,1,3.824.393,3.577,3.577,0,0,1,.739-3.117s.246-.4-.1-.255A3.815,3.815,0,0,0,233,34.3l-.886-.1a6.292,6.292,0,0,1,1.289-4.371s1.88-.345,5.447,1.642a30,30,0,0,0,5.533,2.275Zm1.337,4.258h.05v.772a10.229,10.229,0,0,1-1.641.377c-.82.2-.255.689-.255.689a1.809,1.809,0,0,1,.55.754c.393.452-.246.82-.246.82A7.386,7.386,0,0,0,241.347,43a17.019,17.019,0,0,1-2.576-.05,2.978,2.978,0,0,1-.7-.993.714.714,0,0,1,1.042.1,2.659,2.659,0,0,0,1.289.151c.754-.4,1.837-.894,1.837-.894a.73.73,0,0,1,.493-.1c.3-.107-.05-.353-.05-.353a6.835,6.835,0,0,1-1.337-1.239c-.393-.641,0-.944,0-.944a25.638,25.638,0,0,1,3.036-2.355h0a2.142,2.142,0,0,1,1.091-.09l.107.534a.648.648,0,0,0-.377.591.6.6,0,0,0,.541.648Zm2.528,4.709s-.763.115-1.985.205a1.1,1.1,0,0,0,.754-1.1,1.215,1.215,0,0,0-.246-.739.984.984,0,0,0-.7-.393v-.73a.624.624,0,0,0,.4-.558.394.394,0,0,0,0-.151h.665a3,3,0,0,0,2.232,1.732,6.319,6.319,0,0,0-1.584.82s-.7.665.493.9Zm-3.865-2.774a.262.262,0,0,1-.1-.353,3.84,3.84,0,0,0,.936-.14h0a.641.641,0,0,0,.541.541v.73a1.182,1.182,0,0,0,.05,2.24h0c-.977.066-2.19.107-3.52.066a8.269,8.269,0,0,1,1.69-1.189s.246,0,.739-.452c.033-.006.73-.695-.336-1.441Zm1.091,1.887a.558.558,0,0,1,.493-.6.55.55,0,0,1,.5.345c0,.1.041.151.05.255a.567.567,0,0,1-.55.591.558.558,0,0,1-.467-.591Zm1.239-4.1a1.132,1.132,0,0,0,0,.591,4.2,4.2,0,0,1-.7.336v-.82a.648.648,0,0,0,.246-.534.6.6,0,0,0-.5-.641v-.4a1.642,1.642,0,0,1,.82.641c.262.715.151.87.151.87Zm-10.067,4.923-.246-.3h0l1.436-.393.6.894-1.3-.1.7-.5Zm-.246,0a1.141,1.141,0,0,1-.993-.05,3.717,3.717,0,0,1,.393-1.642c-.172-1.3-2.9-1.055-2.9-1.055l-.689-.648-.151-.151-1.616-1.485A4.562,4.562,0,0,1,230,39.26a7.518,7.518,0,0,1-.452.82l-.591-.3a1.641,1.641,0,0,0,.246-.541,19.69,19.69,0,0,0,.82-2.881,3.429,3.429,0,0,1,.739.1,1.707,1.707,0,0,0,.255.151l.369.151.55.82a.648.648,0,0,0-.081.3c0,.3.151.493.4.493h0a.386.386,0,0,0,.246-.081l.984.427a.517.517,0,0,0,.452.55.434.434,0,0,0,.369-.238l.82.124a.476.476,0,0,0,.427.41.534.534,0,0,0,.493-.508l.705-.336a.419.419,0,0,0,.345.2.55.55,0,0,0,.493-.55l.452-.739a13,13,0,0,0,2.528-.05,22.042,22.042,0,0,1,2.461-1.091,6.089,6.089,0,0,0-1.042.82,7.932,7.932,0,0,0-.7.82,1.329,1.329,0,0,0-.541,1.141,1.838,1.838,0,0,0,.3.82,1.781,1.781,0,0,0,.591.443l.55.5a5.022,5.022,0,0,1-1.436.591,1.969,1.969,0,0,1-1.28-.172c-1.739-.393-2.33.393-2.33.393a1.706,1.706,0,0,1-.993.452Zm-1.437-.151a3.355,3.355,0,0,1-1.83-.591s-.353-.05.09-.3a1.641,1.641,0,0,1,1.055-.107,1.789,1.789,0,0,0,1.132-.1Zm-2.035.5a3.043,3.043,0,0,1,.05,1.141c-.641-.205-.739-.5-.739-.5a.434.434,0,0,1,.246-.393h0a2.233,2.233,0,0,1,.467-.14Zm.944-2.831s.151-.2,1.239.2c0,0,1.042.648-.2.944,0,0-.151-.689-.7-.754.024.081.081-.164-.32-.32Zm-3.183,2.364a1.591,1.591,0,0,0,0-.484h.345l-.041-.151-.246.1a2.191,2.191,0,0,0-.081-.894,2.231,2.231,0,0,1,.525,1.468h0a.754.754,0,0,0-.476.041Zm.493.188a.738.738,0,0,1-.484.582v-.624a1.034,1.034,0,0,1,.508.115ZM229.8,40.127h0a6.565,6.565,0,0,0,.82-2.092l.205.255-.3.944.2.2.345-.82.246.3-.393.648.3.246.393-.541.246.2L231.33,40l.246.345.443-.689.353.246-.6.6.246.2.6-.493.2.14-1.436,1.2a2.847,2.847,0,0,0-1.542-1.337Zm-.541-2.19h.151l-.151.2-.345.82-.353-.2.151-.05.255-.493-.5-.255-.1.6-.2-.345.1-.648v-.1ZM228.82,36.6a.386.386,0,0,0,.3.205s.3.151.3-.443l.151.041a.82.82,0,0,1-.1.5s-.3.541-.82-.1c.057.074-.05-.074.205-.131Zm.377,4.1.567-.107a1.156,1.156,0,0,1,.151.615.894.894,0,0,0-.705,0,.934.934,0,0,0,.017-.452Zm0-.172-.722-.05a.763.763,0,0,1,.467-.188,2.609,2.609,0,0,1,.705.131Zm-.82.066.715.09a2.55,2.55,0,0,1-.081.705,1.026,1.026,0,0,0-.419.041,1.264,1.264,0,0,0,.05-.648l-.151.1s.09.181-.066.624h-.066a2.472,2.472,0,0,1-.066-.353.82.82,0,0,1,.081-.508Zm.722.977c0,.246.081.919-.151,1.091a2.355,2.355,0,0,1-.534-.9.927.927,0,0,1,.681-.131Zm.05.977a2.388,2.388,0,0,1,.7-.131,1.592,1.592,0,0,1-.115.82,2.749,2.749,0,0,1-.672-.452,1.068,1.068,0,0,0,.09-.181Zm0-.205a2.634,2.634,0,0,0,0-.82,1.067,1.067,0,0,1,.754-.05,1.264,1.264,0,0,1-.05.739,1.206,1.206,0,0,0-.656.188Zm.754-1.809a2.15,2.15,0,0,1,.632.41h0a.977.977,0,0,0-.484.2,1.055,1.055,0,0,0-.107-.558Zm0,2.757.066-.172a1.469,1.469,0,0,1,.574-.205v.452a1.28,1.28,0,0,1-.436,0,1.222,1.222,0,0,1-.238-.074Zm.665-.624a.739.739,0,0,0-.541.288,1.468,1.468,0,0,0,0-.681,1.838,1.838,0,0,1,.6-.107,1.1,1.1,0,0,1-.057.558Zm.074-.689a.82.82,0,0,0-.534.09,1.075,1.075,0,0,0,0-.681.574.574,0,0,1,.4-.164,1.4,1.4,0,0,1,.131.812Zm6.055-3.529-.632.3a.567.567,0,0,0-.476-.434c-.246,0-.443.3-.443.591l-.754-.131a.486.486,0,0,0,0-.115c0-.3-.2-.6-.452-.6s-.336.164-.41.377l-.87-.393a.7.7,0,0,0,.041-.222.493.493,0,0,0-.452-.5h-.115L231.9,36.9h0a26.171,26.171,0,0,0,2.823.7h1.091l.353-.55a4.48,4.48,0,0,0,1.641.467h0l-.288.41a.452.452,0,0,0-.386-.229c-.255,0-.452.238-.452.591a.823.823,0,0,0,.008.222Zm-12.562,3.479a3.512,3.512,0,0,0,1.739.82,1.28,1.28,0,0,1,.467.36.377.377,0,0,1-.255.55,7.852,7.852,0,0,1-1.985-.886Zm.754-.246.82-1.189.246.246-.894,1.289Zm.4.393.82-1.189a1.706,1.706,0,0,0,1.189.05s-.722,2.042-2.011,1.2Zm1.436-7.73h-4.1V27.939h4.267Zm.648-3.422,1.034-.82.1-.2.246.541H228.6l-.936.754.14.393.255.246-.345.151-.55-1h.205Zm3.388,2.609.074.386h-.2l-.739-.05a6.506,6.506,0,0,0-.4-2.38,14.05,14.05,0,0,0-.82-1.887c.151-.151.393.151.739.55a7.251,7.251,0,0,1,.5.641c.2.246.443.5.641.754l.386.467-.1.427h0c-.255,0-.452.255-.452.6a.517.517,0,0,0,.369.558Zm-1.067.115H229.2l-.345-.246-.4.151-.246.151-.151-.591h.151l.6-.151.443-.591.1-.246.2.591-.443.493Zm-1.78.493-.4.7a7.633,7.633,0,0,0-.541-2.462V31.232h0a5.817,5.817,0,0,1,.944,2.97Zm3.233-1.642.057-.271.525.632a1.641,1.641,0,0,0,.1,1.141l-.82-.1-.041-.427a.567.567,0,0,0,.345-.508.648.648,0,0,0-.164-.369Zm9.026-2.609-.3-.2-.246-.3a6.759,6.759,0,0,0,.689-1.534h0a1.69,1.69,0,0,1-.164,2.125Zm.7-1.346a6.036,6.036,0,0,0-.443-1.189,4.8,4.8,0,0,0,.1-1.084,1.747,1.747,0,0,1,.82.886,5.474,5.474,0,0,1-.493,1.485Zm.541-1.732a1.507,1.507,0,0,0-.689-.82,2.766,2.766,0,0,1-.5-1.642,2,2,0,0,1,1.173,2.563Zm-.05-2.085a7.474,7.474,0,0,1-1.337-.993,3.372,3.372,0,0,0-.443-1.042,2.552,2.552,0,0,1,1.764,2.133ZM240.47,22.8l-.984-.4a9.928,9.928,0,0,0-1.247-1.042c1.329-.246,2.216,1.542,2.216,1.542Zm-4.661-1.444a1.7,1.7,0,0,1-.393.82,2.683,2.683,0,0,0-.246-1.189Zm-3.768-1.682a.632.632,0,0,1-.345-.591s.05-.3.6.05a1.96,1.96,0,0,1,.591,1.289Zm1.091.754a2.969,2.969,0,0,0-.246-.894l.641.443a5.521,5.521,0,0,1,.353.55,1.886,1.886,0,0,1,.151.591h0Zm1.189.82a1.507,1.507,0,0,0-.246-.886h0v-.107l.648.5a2.19,2.19,0,0,1,.393,1.289Zm-1.485,5.211s-.894,0-.894-.5a.739.739,0,0,0,.6-.1h0l.3.3a1.69,1.69,0,0,0,.648-.255v.2a1.01,1.01,0,0,1-.665.41Zm4.013.1c1.641.05,1.387-1.937,1.387-1.937-.345-.689-.246.353-.246.353-.689,2.273-2.461.246-2.461.246-.2-.151,0,.345,0,.345.1.246.2.2.2.2l.151.151-1.23.5-.55.82h-.151l-.6-.541a1.025,1.025,0,0,0,.393-.894s.353-.05-.345-.05l-.246.151s-.246-.1-.3-.246l-.1-.591.452-.55.393.05a13.568,13.568,0,0,1,1.642-1.642l.2.229c-.246.55.05.7.05.7.393.246.55-.255.55-.255.393.2.246-.041.246-.041a2.19,2.19,0,0,1-.927-.73l.927-.763a1.96,1.96,0,0,1,.648-.82,3.6,3.6,0,0,1-.452-1.084,1.507,1.507,0,0,1,1.436,1.289c3.824,3.015,1.444,7.778,1.444,7.778a11.865,11.865,0,0,0-3.725-1.535,3.166,3.166,0,0,1,1.2-1.055ZM233.731,29c.944-.255.246-.944.246-.944.353-.151.452-.05.452-.05.443-.246.591.3.591.3.345-.3.591-.1.591-.1-.739.7.151.944.151.944a.574.574,0,0,0,.541-.443,1.075,1.075,0,0,1-.246-.353,1.232,1.232,0,0,1,.393.246.238.238,0,0,1,.246-.3.665.665,0,0,1,.107.443c.151-.151.443,0,.443,0-.443.5.151.944.151.944.7.393.6-.739.6-.739a.4.4,0,0,1,.443.443l.3-.246a1.723,1.723,0,0,1,.1.493.386.386,0,0,1,.5-.05c-.82.5-.255.944-.255.944a.369.369,0,0,0,.452.05l-.05-.345.641.1-.641.754a11.134,11.134,0,0,0-5.85-1.74h0Zm-1.141-1.042c.689-.1.541.82.541.82a.739.739,0,0,1-.452.336c-.271,0-.386-.329-.386-.329a.574.574,0,0,1,.288-.829Zm-.4,1.78a.392.392,0,0,0,0-.164l.066-.164a.82.82,0,0,0,.55.188c.508,0,.705-.754.705-.754h.124l-.124.591a3.57,3.57,0,0,0-.936,1.289l-.567-.558a.493.493,0,0,0,.164-.434Zm-.525.82.574.624a4.718,4.718,0,0,0-.443,1.485l-.517-.624.05-.205a.582.582,0,0,0,.32-.508.567.567,0,0,0-.181-.41ZM228.381,28.1s.7-.7,1.69.754l1.444,1.542h0l-.246.419a.393.393,0,0,0-.164,0,.5.5,0,0,0-.452.541h0l-1.547-1.869s-.05-.3-.648-.205a2.65,2.65,0,0,0-.82-.936Zm-.82.493.255.452L227,30.688l.05-.689.493-1.141-.493.345V28.81Zm-.393-1.182a.82.82,0,0,1-.641.05,27.584,27.584,0,0,0-8.583.151c-.739.05-.591-.3-.591-.3.151-.541.443-.443.443-.443h0a24.516,24.516,0,0,1,9.026,0c.577.086.332.529.332.529Zm-4.709,16.763c.1,0,.205.151.205.3s-.107.3-.205.3a.3.3,0,0,1,0-.591Zm-.393-.057c-.151,0-.246-.14-.246-.345a.246.246,0,0,1,.493,0c-.017.185-.081.336-.262.336Zm.541-.238c0-.2.1-.353.255-.353s.2.151.2.353-.1.3-.2.3a.279.279,0,0,1-.27-.317Zm-.2-.5c-.1,0-.2-.1-.2-.3s.1-.345.2-.345a.336.336,0,0,1,.246.345c-.014.187-.113.286-.261.286ZM222.36,28v6.343h-4.315l-.2-6.391Zm-4.936,8.568a.525.525,0,0,0-.393.3,7.335,7.335,0,0,1,.689-5.252h0l.05.993a7.386,7.386,0,0,0-.329,3.93Zm-.82-.641v.393h-.82l-.591-.393.862-1.034-.754.05-.151.05v-.55h0l.151.1h1.182l.151-.05v.452l-.886.993Zm0-1.985-.115-.2-1.141-.151-.1.1.05-.5v-.151l.2.151,1.042.151h.2Zm.057-1.83.2-.151a.434.434,0,0,0,.151-.4c-.107-.443-.345,0-.345,0-.6.6-.894-.05-.894-.05-.255-.452.393-.993.393-.993h0l.345.246-.246.1c-.393.353-.151.55-.151.55.246.151.3-.151.3-.151.393-.55.689-.255.689-.255a.656.656,0,0,1,.151.894l-.151.205v.151Zm.386-2.388c.151.7.648.6.648.6v.3a.87.87,0,1,1-.124-1.732V29.3a.4.4,0,0,0-.534.443Zm11-8.2-.754-.7s.984-.812.739.73Zm-1.141-.993-.894-.5c1.034-1.01.886.534.886.534Zm-1.289-.82-.936-.4s.927-1.125.927.41Zm1.937,2.183a6.531,6.531,0,0,0-4.513-1.239v-.886a6.014,6.014,0,0,1,4.5,2.133Zm-5.6-2.528c-.7-.151-.255-.7-.255-.7h1.346c.2.3-.2.754-.2.754a1.379,1.379,0,0,1-.9-.041Zm.82.345V20.7h-.82V19.72Zm1.091-1.132s.393,0,.493.7l-.993-.057s.074-.736.508-.644Zm-2.133-2.133h1.313l-.393.6.246.246.3-.4.05,1.247-.648-.5.3.754-1.141-.05.493-.6-.151-.151-.5.443-.057-1.182.5.452.151-.151Zm-.6,2.781-.993.393c.214-1.887,1.01-.393,1.01-.393Zm-1.387.493-.894.591c-.033-1.437.9-.591.9-.591Zm1.928,0v.993a9.846,9.846,0,0,0-4.012.993,8.771,8.771,0,0,1,4.029-1.985Zm-3.281.894-.82.641c-.14-1.437.8-.641.8-.641Zm-1.2.886-.739.82c-.312-1.37.722-.82.722-.82Zm-.345,2.33.452-1.189.493,1.937-.443-.2a.977.977,0,0,0,1.584.739c.55-.591.05-.82.05-.82-.641-.353-.754.05-.754.05-.443-1.69.7-1.042.7-1.042-.05-1.091.393-1.189.393-1.189.6.2.6,1.141.6,1.141.641-1.042,1.042.05,1.042.05a.968.968,0,0,1-.05.443.632.632,0,0,0-.894.55c-.1.541.894.689.894.689A1.739,1.739,0,0,0,222.1,23.35a2.824,2.824,0,0,0-.944.591V21.769a2.29,2.29,0,0,0,1.055.82,2.871,2.871,0,0,0-.7-1.534L223.6,21a2.159,2.159,0,0,0-.641,1.584,1.357,1.357,0,0,0,.886-.689l.05,1.928c-.443-.689-.894-.393-.894-.393a1.206,1.206,0,0,0,1.117,1.531.82.82,0,0,0,.936-.739c-.2-.894-.82-.4-.82-.4-.246-1.485.82-.82.82-.82-.393-.993.3-1.346.3-1.346A1.042,1.042,0,0,1,225.808,23c1.141-.6.936.82.936.82-1.084-.493-.936.648-.936.648.493,1.189,1.485.3,1.485.3a1.693,1.693,0,0,0,.246-.591l-.443.1.443-1.535.393.82.3-.82.255.3-1.444,3.618a27.306,27.306,0,0,0-9.362-.1h0Zm-4.775,8.607a3.467,3.467,0,0,0,0-1.091,4.15,4.15,0,0,0,1.337.3l.2.1s1.3-1.437,1.69-1.837a18.382,18.382,0,0,0,1.437-2.528l.443-.689.107-.2a.369.369,0,0,1,.246.107s0,.345-.2.151a.936.936,0,0,0-.393.82.615.615,0,0,0,.443.5v.246a7.335,7.335,0,0,0-2.281,4.135,6.331,6.331,0,0,0-1.189,1.642l-1.69-.05-.689-.7s.4-.633.552-.9Zm2.764,3.282-.82-.6h0l-.739-.541.82-.107a1.944,1.944,0,0,1,.754-1.132,14.9,14.9,0,0,0-.007,2.38Zm-8.459-16.1h.393l-.345-.393h0l.689-.353v.5l.246-.246.3.689-.393.05.255.255c.541.393.2.739.2.739l-.255.2c-.82.3-.541-.936-.541-.936l-.246.246Zm-1.346,3.66a3.979,3.979,0,0,1,1.642-2.232l.2.205-.255.3.1.345-.591.5-.5-.255a1.74,1.74,0,0,0-.345,1.141l.345.754c.7.3.452-.55.452-.55-.2-.246-.452.3-.452.3-.443-.82.151-.82.151-.82a.729.729,0,0,1-.151-.641h0c.6.05.641.5.641.5.05-.82.7-.1.7-.1a1.141,1.141,0,0,0-.55.345c0,.493.754.493.754.493.648-.345.55-.739.55-.739.1-.55-.55-.255-.55-.255l-.246-.541.393-.05v-.2l-.345-.2,1.091-.55-.151.443.1.107.246-.3.2.82c-.493-.1-.3.345-.3.345.279.3.508.336.672.271a.713.713,0,0,0,.32-.32c.3-.345-.05-.493-.05-.493-.393.151-.452.3-.452.3-.2-1.042.353-.82.353-.82a.993.993,0,0,1,0-.754.82.82,0,0,1,.443.6c.591-.648.689.05.689.05-.82.151-.443.591-.443.591.188.3.329.345.452.271a3.587,3.587,0,0,0,.345-.919,2.042,2.042,0,0,0-1.592-.7l-.05.4-.591.1-.1-.3L208,20.69v-.246a2.871,2.871,0,0,1,2.724.641l.05,1.985a14.449,14.449,0,0,0-4.759,2.035Zm.82,2.24s.05.05.353-.151a11.841,11.841,0,0,1,4.6-2.035h0a.877.877,0,0,1,.4,1.289,3.9,3.9,0,0,0,.345,1.091l.14.517a6.2,6.2,0,0,1-.14,1.124,2.788,2.788,0,0,0,.05.82.96.96,0,0,1-.689-.55,2.552,2.552,0,0,1-.246,1.985,1.985,1.985,0,0,0-.353,1.141,3.225,3.225,0,0,0-.739-.55,2.823,2.823,0,0,1-1.641-1.337.706.706,0,0,1-.345.493s0-.689-.345-.886a11.3,11.3,0,0,1-.6-1.042,2.643,2.643,0,0,0,.345,1.189,4.221,4.221,0,0,1,.6,1.091s.2.1.393-.255a6.031,6.031,0,0,0,.591.894,4.4,4.4,0,0,1,1.837.993,2.528,2.528,0,0,1,.393-.944,4.221,4.221,0,0,0,.452-2.085,3.282,3.282,0,0,0,.493.151,4.6,4.6,0,0,1,.107-1.642l.1.362a2.388,2.388,0,0,1,.2,1.485,2.609,2.609,0,0,0,0,1.642,1.091,1.091,0,0,1-.6-.336,2.609,2.609,0,0,1-.1,1.88,7.2,7.2,0,0,0-.3,1.141A1.707,1.707,0,0,1,210.4,32a2.913,2.913,0,0,1-.1.993,1.215,1.215,0,0,0-.82-.6,2.626,2.626,0,0,1-1.682-2.027,1.437,1.437,0,0,1-.443.82,4.636,4.636,0,0,0-.55-1.937,3.643,3.643,0,0,1-.393-2.38s-1.042-.467-.55-1.357ZM189.575,40.492a8.846,8.846,0,0,0-.3,3.865h-.393V41.626c-1.141-.246-.648-.689-.648-.689a1.477,1.477,0,0,1,1.337-.443Zm2.38,5.948a.452.452,0,0,0-.493-.353c-.2-.591.3-.591.3-.591a1.747,1.747,0,0,1,.2.944Zm.2-.951a1.189,1.189,0,0,0-1.289-1.337c1.141.452.894,1.141.894,1.141-.3-.05-.6.452-.6.452a3.282,3.282,0,0,1-1.436-3.028c.2-3.422.944-4.1.944-4.1.246-.1.345.057.345.057a2.838,2.838,0,0,0,1.739,0c.393-.1.493-.886.493-.886a5.834,5.834,0,0,1,1.189-2.462c-.648.3-4.267,1.247-4.267,1.247a2.938,2.938,0,0,0-2.125,1.83c-1.091-1.337.641-2.085.641-2.085a1.706,1.706,0,0,1-1.337-1.084h0a3.282,3.282,0,0,1,.255-2.38,5.907,5.907,0,0,1,3.069-2.528,3.06,3.06,0,0,1,2.38-1.437,3.466,3.466,0,0,1-.541.754,4.371,4.371,0,0,0,1.641-.944,1.789,1.789,0,0,1-1.042,1.584,45.2,45.2,0,0,0,9.026-.1A2.273,2.273,0,0,0,204.18,27.9c-.443-1.789-2.675-.754-2.675-.754-4.709,2.733-6.991-.886-6.991-.886a12.414,12.414,0,0,0,3.372.443,7.212,7.212,0,0,1-1.911-1.584,2.2,2.2,0,0,1,1.042.393,4.792,4.792,0,0,0,2.528.5L198.5,24.826a4.456,4.456,0,0,0,1.584.345l.894.1a2.881,2.881,0,0,0,1.289,0,3.069,3.069,0,0,1,2.823,2.576c.246,2.979-3.165,3.224-3.165,3.224a77.906,77.906,0,0,1-9.074.3,1.8,1.8,0,0,1,.993,1.067,3.053,3.053,0,0,0,.345.6c-.82.041-1.584-.993-1.584-.993a8.209,8.209,0,0,0,.9,1.263c-.452.2-1.387-.944-1.387-.944a2.035,2.035,0,0,0-2.781.05c-1.387,1.084-1.141,2.027-1.141,2.027a1.125,1.125,0,0,0,.345.82,1.732,1.732,0,0,0,1.394.5,9.272,9.272,0,0,0,2.675-.5,8.469,8.469,0,0,0,1.534-.591,2.347,2.347,0,0,0,1.542-.2,59.106,59.106,0,0,0,8.426-2.462,12.8,12.8,0,0,0,2.38-1.985c.541.353.886,1.642.886,1.642a.879.879,0,0,0,.353-.452c.3,1.091,1.78,1.69,1.78,1.69a1.411,1.411,0,0,1,.82.493l.151-.443a21.833,21.833,0,0,0,3.224,2.33c1.042.714,2.1,1.4,3.165,2.085,1.337-1.494,2.281-.6,2.281-.6a.525.525,0,0,1-.443.151,1.641,1.641,0,0,0-1.141.345c1.642-.246,1.937.3,1.937.3.345.82-.82,1.182-.82,1.182a.984.984,0,0,0-1.042-1.042,1.37,1.37,0,0,1,.739,1.141c-.345.944-1.189.205-1.189.205a4.544,4.544,0,0,1-.739-.55,10.575,10.575,0,0,1-4.759-1.837l-1.239.55a5.283,5.283,0,0,1-1.592-1.937c-.151-.246-.246-.443-.246-.443v.443a3.931,3.931,0,0,0,.6,1.3c-2.133,2.462-5.948.246-5.948.246-.452-.151-1.837-.894-1.837-.894a6.816,6.816,0,0,0-5.8,3.52l-.3.493c-.3,2.24-.993,2.24-.993,2.24a.96.96,0,0,0-.493-1.239,14.505,14.505,0,0,1-1.985,0,2.691,2.691,0,0,0-.151,2.733c1.732-.05.984,1.337.984,1.337a.6.6,0,0,1-.553.485ZM216.4,40.837l.754.82a.879.879,0,0,1-.151.82,1.494,1.494,0,0,0-.345-.246,1.075,1.075,0,0,0-.393-.1l-.05-.641a.905.905,0,0,0,.151-.255h0c0-.151.05-.255.05-.4Zm0-.894.648-.493.3.2-.5.443a.362.362,0,0,0-.151.246Zm.55.894a2.369,2.369,0,0,1,.238-.151l.4-.452.2.353-.393.393a.682.682,0,0,0-.1.345Zm.984-1.189a2,2,0,0,0,.6.82h0a2.261,2.261,0,0,0,.591.689.288.288,0,0,1-.3.353,4.793,4.793,0,0,1-1.042-1.346h0c-.05-.467.151-.517.151-.517Zm.6.493h0l-.336-.517a3.284,3.284,0,0,0,.353-.443,1.468,1.468,0,0,1,.151,1.042c-.131-.081-.164-.09-.164-.081Zm.689.82a.665.665,0,0,1,.452.591.977.977,0,0,1-.944.648s-.443,0-.151-.6c0,.024.846.229.641-.615Zm-.1-.1a.705.705,0,0,1-.345-.493.722.722,0,0,0,.172-.55c.151.246.246.246.246.246l.151-.1.3.443a.82.82,0,0,0-.525.476Zm.057-1.289a2.127,2.127,0,0,0-.3-.648l.443-.345a1.149,1.149,0,0,1-.14,1.017Zm-4.221.1h0l.345-.6.246.057a2.535,2.535,0,0,0,.55,1.182l-.05.993a.567.567,0,0,0-.493-.345,1.108,1.108,0,0,0-.6-1.263ZM212.5,38.178v.2a3.717,3.717,0,0,0-1.444-.55v-.151l.353-.151.443-.151a3.015,3.015,0,0,0,1.357.788,13.949,13.949,0,0,0,1.985.55.656.656,0,0,0-.6.714.951.951,0,0,0-.87-.2,1.821,1.821,0,0,0-1.23-1.067ZM209.924,39.2a5.634,5.634,0,0,1,.591.6,9.267,9.267,0,0,0,1.017.73,2.823,2.823,0,0,0,0,1.642s-1.189.05-1.592-.754a.7.7,0,0,1,.4-.345,3.734,3.734,0,0,1-1.387-.944s-.05-.1,0-.151.151-.3.689.1l.1-.246a2.724,2.724,0,0,1-.894-1.485,2.29,2.29,0,0,1,1.346.246,1.075,1.075,0,0,1-.2-.648,1.789,1.789,0,0,1,1.394.894,1.787,1.787,0,0,1,0-.754,2.9,2.9,0,0,1,1.189.754.615.615,0,0,1,0-.443,1.337,1.337,0,0,1,.641.944l-.3.541h0a1.477,1.477,0,0,0-1.2.345,10.263,10.263,0,0,1-1.525-1.091,4.2,4.2,0,0,0-.944-.493Zm1.978,4.866a.288.288,0,0,0,.255.151l-.648.689-.05-.739.05-.6a1.64,1.64,0,0,0,.427.5Zm-2.33-1.592v-.393l-.151-.151v-.467l-.05-.345a1.025,1.025,0,0,1,.452.754,1.507,1.507,0,0,0,.393.493l-.345.1h0Zm-2.33-.393a1.9,1.9,0,0,1,.4.493,3.963,3.963,0,0,1-.648.05h0a.452.452,0,0,1,.279-.541Zm-.541.641a31.466,31.466,0,0,1-3.768.2,14.645,14.645,0,0,1-4.1-1.091.229.229,0,0,1-.1-.345l-.05-.3c-.05-.353.246-.3.246-.3a3.577,3.577,0,0,0,1.837-1.239c.246-.6-.3-.5-.3-.5A15.212,15.212,0,0,1,197,38.446h0c.2-.754,1.641-1.535,1.641-1.535a14.456,14.456,0,0,1,1.83-.55A3.2,3.2,0,0,1,202.65,37.8l-.493.393.2.151a.672.672,0,0,1,.944.057c.443.238,1.534.641,1.534.641-.493.739-2.035.443-2.035.443a1.669,1.669,0,0,1-.82,1.337,10.191,10.191,0,0,0,2.871.944,1.091,1.091,0,0,1,1.732-.345,4.572,4.572,0,0,1,.452.393c-.452.246-.3.894-.3.894Zm-10.97-2.027.1-.591a4.171,4.171,0,0,0,.591-.894,1,1,0,0,0,.151-.3,2.372,2.372,0,0,0,.6.3h.05a17.74,17.74,0,0,0,2.724.443,3.188,3.188,0,0,1-.443.393,2.666,2.666,0,0,1-.993.55,2.526,2.526,0,0,0-.151,1.387,2.585,2.585,0,0,0,.993.5c.493.2.993.345.993.345a4.62,4.62,0,0,1-1.837,0,3.015,3.015,0,0,1-.894-.2l.255-.493c-.211-1.289-2.14-1.437-2.14-1.437Zm13.127-.151a3.283,3.283,0,0,0-.443-.345.968.968,0,0,0-.689-.1c-1.789-.393-2.232.82-2.232.82-.648-.1-.7.443-.7.443l-.82-.246-.2-.1-.944-.246.4-.648a3.372,3.372,0,0,0,1.978-.886h0a4.712,4.712,0,0,0,.4-.452,2.552,2.552,0,0,1-2.461-1.437,7.573,7.573,0,0,0,1.739.754,4.6,4.6,0,0,0,4.709-.944l.641.393H209.9v.55a2.462,2.462,0,0,0-1.189.14,1.854,1.854,0,0,0,.345.993,2.134,2.134,0,0,0,.353.5.656.656,0,0,0-.7.2Zm-1.084.648a.508.508,0,0,0-.5.353c-.345-.7-1.436-.648-1.436-.648h0a1.108,1.108,0,0,1,1.534-.3,1.862,1.862,0,0,1,.4.591Zm-.4.6a.615.615,0,0,1,.55-.443,1.379,1.379,0,0,1,.3,1.132l-.345.05a.943.943,0,0,0-.5-.748Zm.7-.7s.05-.493-.2-.648h0s1.091-.1,1.289,1.3a1.141,1.141,0,0,0-.648.1,1.345,1.345,0,0,0-.443-.754Zm.541.944a.624.624,0,0,1,.5-.151.681.681,0,0,1,.1.493l-.55.05Zm-16.556,1.525s.894-.944,1.346.452c0,0,0,.493-.353.151a.82.82,0,0,0-.993-.6Zm1.091,2.462a1.042,1.042,0,0,0-.443-.541.624.624,0,0,0,.246-.493c.567.255.2,1.055.2,1.055Zm.3-.82c-.05-.393-.3-.393-.3-.393v-.3a.255.255,0,0,0,.345-.1.82.82,0,0,1-.05.793Zm.3-1.3c-.5-1.83-1.789-.591-1.789-.591a2.823,2.823,0,0,1,.151-2.035,9.206,9.206,0,0,0,1.739,0c.246,0,.151.151.151.151.2.894-.345.894-.345.894.393.345.493.2.493.2.82.1,1.485-1.485,1.485-1.485a3.143,3.143,0,0,1,1.641.6c.493.443,0,.591,0,.591a6.4,6.4,0,0,0-1.937.1c-.151.1-.1.4-.1.4a8.481,8.481,0,0,1,.151,1.289,7.721,7.721,0,0,0-1.632-.09Zm16.558,1.837a64.341,64.341,0,0,1-12.939.493c-1.682-.3-1.739-1.189-1.739-1.189a2.642,2.642,0,0,0-.151-2.174c-.2-.151-.05-.255-.05-.255h0c1.387.82,6.5.82,6.5.82a32.236,32.236,0,0,0,7.582-.641,5.243,5.243,0,0,0,1.592-.452c.2-.05.1.353.1.353a5.562,5.562,0,0,0-.05,2.281.766.766,0,0,1-.846.763Zm2.576-1a.7.7,0,0,0-.1.3s.05,0-.1.541c0,0,.2.2-.648.641a3.285,3.285,0,0,0,.3-.739s-.2.493-1.542.591c0,0,.7-.246.754-.82l.82-.936h.345s.259-.014.161.421Zm.05-.6c-.1-.345-.541-.345-.541-.345a.993.993,0,0,1-.7-.82.493.493,0,0,1,.2-.5c.246-.151,0-.393,0-.393h0a1.182,1.182,0,0,1-.1-1.091,1.1,1.1,0,0,1,1.141-.82c.493.3.452-.1.452-.1a.772.772,0,0,1,1.084-.3,1.1,1.1,0,0,0,.648.393c.345.452.151.7.151.7a.6.6,0,0,0,.1.443.541.541,0,0,1,.393.6,3.529,3.529,0,0,1-.246,1.437.591.591,0,0,1-.641.05c-.255.05-.151.151-.151.151.255.393,0,.591,0,.591a1.189,1.189,0,0,1-.936.4c-.8-.033-.846-.434-.846-.434Zm1.189,2.232c-.2-.443-.1-.641-.1-.641a.705.705,0,0,0-.1-.55,1.477,1.477,0,0,0-.1,1.091,1.329,1.329,0,0,1-.754-.82,1.215,1.215,0,0,1,.246-.689h0a2.75,2.75,0,0,0,.82.05c.705.574-.024,1.518-.024,1.518Zm3.18-1.961a.722.722,0,0,1-.5-.151c.6.689,0,2.035,0,2.035a1.3,1.3,0,0,1-.689-.944c.1.493-.107.641-.107.641-.493-.1-.689-.754-.689-.754-.05.6-.345.353-.345.353-.151-.1-.151-.452-.151-.452-.246-.041-.4-.443-.4-.443h0a.96.96,0,0,0,.754-.894.592.592,0,0,0,.164-.074,1.494,1.494,0,0,1,.672.772c.205.1.5.6.5.6-.05-.648-.345-.82-.345-.82a2.216,2.216,0,0,0-.534-.82,2.216,2.216,0,0,0,.377-1.206c.55-.2,1.042.493,1.042.493a.6.6,0,0,1-.393.057C217.488,43.168,217.3,44.411,217.3,44.411Zm.2-1.642c-.353-.55-.05-.7-.05-.7l.689-.993a.952.952,0,0,1,.353.393l-.5.648c-.151.345.1.443.1.443l.4.5a.419.419,0,0,1-.452.345Zm2.979,2.133a2.261,2.261,0,0,0-.2-.55s-.393-.648-.246.246c0,0-.151.246.1.894a.9.9,0,0,1-.2.993s-.393.345-.648-.255c0,0,0-.246-.345-.3,0,0-.393.205-.82-.345a.534.534,0,0,1,.353-.82,1.809,1.809,0,0,0,.82-.345s.5-.541-.2-.393a1.37,1.37,0,0,1-.894.393.6.6,0,0,1-.345-.944s.82.4.82-.345a4.923,4.923,0,0,0,1.189.779,15.092,15.092,0,0,1-.7,1.642,5.466,5.466,0,0,0,.82-1.584,3.84,3.84,0,0,0,.591.2l.057.82s.017.262-.124-.081Zm-1.036-5.164a1.878,1.878,0,0,0,.05-1.289s.393-1.042-.205-1.239c0,0,.151-1.091-1.289-.944V34.625l4.315-.057.1,7.59a5.243,5.243,0,0,1-2.938-2.412Zm4.308,5.743-1.337,1.189-1.584-1.289.05-3.717.641.443v3.165l.894.648.82-.886V42.126l.541-.05ZM222.608,42.2l-.05-7.582h4.1v2.223s-1.042,2.881-1.141,3.577a3.617,3.617,0,0,1-2.88,1.756Zm2.9,3.889a4.522,4.522,0,0,1-1.436-.591v-.55h0a3.093,3.093,0,0,0,1.436.7S225.768,45.989,225.513,46.089Zm.2-1.337h0l.246-.886c.82-.05.55-.993.55-.993.689-.2,1.485-1.485,1.485-1.485l.2.493.3.6c.151.3.246.443.2.443l-.452.393v-.214l-.82.754.3-1.642-.82,1.837a3.282,3.282,0,0,1-1.173.7Zm8.008,1.632s-1.189-.246-1.494-1.141l.3.993a2.15,2.15,0,0,1-.82-.82s-.894-1.239-1.937-.7a4.259,4.259,0,0,1,1.337,1.141.82.82,0,0,1-.591-.05,2.848,2.848,0,0,1,.493.55,1.821,1.821,0,0,1-1.132-.5,1.937,1.937,0,0,0-1.887-.493,1.747,1.747,0,0,1,.894.82s-2.281,0-2.979-1.042h0l1.494-.754.3-.246.591-.246a2.781,2.781,0,0,1,1.1.55l.1-.1A1.739,1.739,0,0,0,228.4,43.7l.689-.443a1.641,1.641,0,0,0,2.133.3s.648-.452.393-1.837l1.789-1.387v-.151s.641.05.641.591c0,0,.55-.2.648.5,0,0-1.239-.353-1.887.246l.1,1.141a1.156,1.156,0,0,0-.944.993s0,.591,1.091.739l.05.993s.3.493.648.493c-.029.057.1.36-.029.5Zm16.263-.648s-.057.246-1.642.443c0,0-9.517,1.3-15.073-.82a9.717,9.717,0,0,0-.09-2.881s2.273,1.2,8.2,1.042c0,0,7.286-.2,8.574-.944a7.537,7.537,0,0,0,.55,2.232s.05.886-.541.936Zm.541-1.642-.443-1.69a.641.641,0,0,0-.894-.2,1.124,1.124,0,0,1-.993.151c-.591-.1-.1-.493-.1-.493a7.6,7.6,0,0,1,1.584-.754,5.124,5.124,0,0,0,1.69.2c.944-.151.739.648.739.648a10.788,10.788,0,0,1-.2,2.035,13.848,13.848,0,0,0-1.4.066Zm.754,1.732a3.758,3.758,0,0,0,.82-1.387h0l.255.246-.754,1.337Zm.689.246.6-1.289a1.749,1.749,0,0,0,1.141-.05l.151.82a2.33,2.33,0,0,1-1.9.484Zm3.569-4.5s.82.2.6.886c0,0,0,.345-.82.05a3.88,3.88,0,0,1,.246,1.985,6.122,6.122,0,0,0-.739-.246,1.642,1.642,0,0,0-1.1-1.887,2.46,2.46,0,0,0-.041-.493,1.643,1.643,0,0,0-.05-.648,4.718,4.718,0,0,1,1.887.32Zm-.05-5.259s.894.591-.151,1.437c0,0,.393-.894-.894-1.189a4.726,4.726,0,0,1-1.642-.2,21.744,21.744,0,0,1-2.666-.641,19.194,19.194,0,0,1,.2,3.077,4.654,4.654,0,0,1-.05.648,3.667,3.667,0,0,0,2.38.14l.493.55v.353a14.336,14.336,0,0,0,.2,1.928l.353.1A1.357,1.357,0,0,1,254.1,44.6a1.108,1.108,0,0,0-.6-1.042s-.1-.05,0,.1a.715.715,0,0,1,.151.6.393.393,0,0,1-.2.246s-.984.246-1.189-.246a4.029,4.029,0,0,0,.3-1.337s.1-1.592-.493-1.937c0,0-.1-.151-.7-.151a4.594,4.594,0,0,1-3.422-1.239,2.461,2.461,0,0,1-.894-1.732,1.642,1.642,0,0,0-1.28-1.887l-.205-.4a1.157,1.157,0,0,0,.246-.393.681.681,0,0,0,.057-.393.82.82,0,0,0-.648-.493l-.246-.353a38.04,38.04,0,0,1,4.258.82c.2.05.452.151.6.2a4.2,4.2,0,0,1,1.641.255,7.458,7.458,0,0,0,3.467.393,2.216,2.216,0,0,0,.993-.82,1.985,1.985,0,0,0-.3-2.085,1.018,1.018,0,0,1-.6.5,2,2,0,0,1-1.641-.345,1.568,1.568,0,0,1,1.189-.353s.246-.05,0-.1a2.576,2.576,0,0,0-2.33.82s.443-1.69,1.887-1.494c0,0,.3,0,0-.238a6.006,6.006,0,0,0-3.028-.057,33.737,33.737,0,0,1-5.743.3s-2.823-.493-3.165-2.076a3.078,3.078,0,0,1,1.387-3.282,5.669,5.669,0,0,1,4.371-.82s-.057.4-1.042.7a1.305,1.305,0,0,0,.689.05,4.768,4.768,0,0,0,2.133-.452,5.309,5.309,0,0,1,1.83-.944,2.378,2.378,0,0,0-.641.82s.05.55-1.337,1.091a6.151,6.151,0,0,0,2.724-.689,2.929,2.929,0,0,0,1.789-.452,3.412,3.412,0,0,1-1.641,1.837,10.355,10.355,0,0,1-4.923.1,8.648,8.648,0,0,0-2.38-.393,2.461,2.461,0,0,0-2.38,1.337,1.682,1.682,0,0,0,.993,2.183,5.907,5.907,0,0,0,4.258.3,33.312,33.312,0,0,1,6.1-.7s-1.444-.944-.894-1.83a2.634,2.634,0,0,0,.739.641,1.42,1.42,0,0,1,.7,1.042s.345.246.246.05a2.865,2.865,0,0,1-.246-.944s1.289.3,1.289,2.462c0,0,.353.151.7.894a6.269,6.269,0,0,1-.05,2.183h0a1.854,1.854,0,0,1-1.158,1.444Z" transform="translate(-33.517 -2.897)" fill="gray"/>
    <path id="Path_545" data-name="Path 545" d="M249.159,40.382c-.2.353.246.151.246.151a4.268,4.268,0,0,0,.944-2.38c-.1-.541-.246.057-.246.057a4.717,4.717,0,0,1-.944,2.172Z" transform="translate(-44.717 -6.805)" fill="gray"/>
    <path id="Path_546" data-name="Path 546" d="M261.249,49.769l.1-.2-.7.05h0l.151.151.05,1.789-.05.1.6-.05-.1-.1Z" transform="translate(-46.789 -8.894)" fill="gray"/>
    <path id="Path_547" data-name="Path 547" d="M251.182,50.077l-.648-.041.057.14.05.7-.648-.894h-.4l.151.2-.05,1.444-.05.246.5.05-.05-.2v-.7l.689,1.042h.353l-.05-.151V50.234Z" transform="translate(-44.803 -8.971)" fill="gray"/>
    <path id="Path_548" data-name="Path 548" d="M62.26,35.99v-.05Z" transform="translate(-11.176 -6.452)" fill="gray"/>
    <path id="Path_549" data-name="Path 549" d="M248.375,50.011c-.754-.4-1.091,0-1.091,0h0a1.182,1.182,0,0,0,0,1.682.977.977,0,0,0,1.141,0,1.173,1.173,0,0,0-.05-1.682Zm-.3,1.436a.279.279,0,0,1-.5-.1s-.591-.894.255-1.289c0,0,.246-.107.345.345a.985.985,0,0,1-.093,1.036Z" transform="translate(-44.326 -8.945)" fill="gray"/>
    <path id="Path_550" data-name="Path 550" d="M429.661,37.258c-.55-.246-3.076-2.027-3.076-2.027s-.493.238-.754-.82.05-32.509.05-32.509.05-.689-1.337-.345-12.307,3.865-12.307,3.865-.443.05-.1.648a3.512,3.512,0,0,1,2.089,1.84c.493,1.337.2,27.167.2,27.167l-1.789,1.732s-.641.443.353,1.091c.82.541,10.806,4.923,10.806,4.923l6.145-4.759a.6.6,0,0,0-.279-.8Z" transform="translate(-73.96 -0.263)" fill="gray"/>
    <path id="Path_551" data-name="Path 551" d="M34.993.38H9.96L.492,7.321s-1.042.345-.1.993h0l19.856.255L20.2,33.184c-.574,0-1.158-.057-1.764,0A16.74,16.74,0,0,0,4.257,41.462s-.82.936.4.82c0,0,14.018-2.076,22.2.255a20.438,20.438,0,0,1,13-9.124l.1-25.6S40.4.888,34.993.38Zm-13.907,8.2,5.879.081s1.78-.345,1.436.944l.041,7.687h0c-.336.419-4.046,4.694-7.386-.82Zm0,9.386c2.962,3.872,6.055,1.78,7.386.541v4.611a4.79,4.79,0,0,0-7.386.074Zm0,15.293v-8.81a4.389,4.389,0,0,1,7.386-.172l.066-.05.066,11a24.524,24.524,0,0,0-7.556-1.978Z" transform="translate(0.001 -0.068)" fill="gray"/>
    <path id="Path_552" data-name="Path 552" d="M250.32,40.686c.1.345.5-.205.5-.205a6.278,6.278,0,0,0,.591-1.887c-.1-.82-.246-.1-.246-.1h0a8.582,8.582,0,0,1-.846,2.19Z" transform="translate(-44.934 -6.857)" fill="gray"/>
    <path id="Path_553" data-name="Path 553" d="M246.028,49.683l.041-.151-.493-.05-.591.846-.3-1.091-.55-.1v.243l-.05,1.436-.05.1.393.2v-.936l.452,1.042.641-.846v.846l-.1.151.7.1-.1-.2Z" transform="translate(-43.809 -8.82)" fill="gray"/>
    <path id="Path_554" data-name="Path 554" d="M257.346,51.719l-.443-.7a.73.73,0,0,0,.05-1.042,1.4,1.4,0,0,0-.894.05l-.3.05.151.1.05,1.739-.05.14h.493l-.041-.14v-.754h.246a1.3,1.3,0,0,0,.541.689.436.436,0,0,0,.393,0A.288.288,0,0,0,257.346,51.719Zm-.641-.82c-.1.151-.345.1-.345.1v-.82c.2-.2.345.057.345.057a.509.509,0,0,1,0,.632Z" transform="translate(-45.912 -8.961)" fill="gray"/>
    <path id="Path_555" data-name="Path 555" d="M102.855,10.52a1.158,1.158,0,0,0,1.239.689,10.871,10.871,0,0,0,5.547-5.374c.993-3.717-1.337-4.709-1.337-4.709a3.52,3.52,0,0,0-3.618-.214,6.564,6.564,0,0,0-3.028,3.768,8.5,8.5,0,0,0,1.2,5.85Z" transform="translate(-18.229 -0.092)" fill="gray"/>
    <path id="Path_556" data-name="Path 556" d="M398.329,11.66a11.094,11.094,0,0,0,5.564-5.4c.984-3.627-1.37-4.635-1.37-4.635a3.381,3.381,0,0,0-3.618-.246,6.565,6.565,0,0,0-3.015,3.768A8.452,8.452,0,0,0,397.08,11a1.141,1.141,0,0,0,1.256.665Z" transform="translate(-71.041 -0.173)" fill="gray"/>
    <path id="Path_557" data-name="Path 557" d="M255.76,50.1Z" transform="translate(-45.911 -8.993)" fill="gray"/>
    <path id="Path_558" data-name="Path 558" d="M254.1,50.11h-.7l.151.151.05,1.69-.2.14.541.05A.984.984,0,0,0,255,51.106S254.844,50.11,254.1,50.11Zm-.1,1.83V50.356s.345,0,.493.591a.886.886,0,0,1-.493.993Z" transform="translate(-45.486 -8.994)" fill="gray"/>
    <path id="Path_559" data-name="Path 559" d="M9.9,35.568A12.381,12.381,0,0,0,14.759,26.3V12.069s.345-1.239-1.485-.393L4.4,16.336a1,1,0,0,0-.2.689V34.133a8.8,8.8,0,0,1-1.73,4.409s-1.091,1.78.739,1.091C3.208,39.638,8.516,37.455,9.9,35.568Z" transform="translate(-0.385 -2.043)" fill="gray"/>
    <path id="Path_560" data-name="Path 560" d="M406.277,39.478s-2.881-1.69-3.422-1.937a.567.567,0,0,1-.3-.739s-.4-12.743-.107-13.833.6-.7.6-.7a7.386,7.386,0,0,0,1.69-.739c.739-.5.041-.894.041-.894s-9.262-4.833-9.959-5.454a.82.82,0,0,0-1.189,0h0s-6.441,3.905-6.941,4.725-.1,1.091-.1,1.091a37.763,37.763,0,0,0,3.52,1.985c.82.246.493.689.493.689l.2,12.891a4.972,4.972,0,0,1,0,1.239s-1.091.82-1.69,1.346a.82.82,0,0,0-.151,1.182l9.97,5.013s6.744-4.857,7.335-5.161S406.277,39.478,406.277,39.478Z" transform="translate(-69.37 -2.678)" fill="gray"/>
    <path id="Path_561" data-name="Path 561" d="M249.127,37.691h0a6.253,6.253,0,0,1-.984,2.528c-.151.393.3.1.3.1a6.752,6.752,0,0,0,.82-2.528C249.225,37.338,249.127,37.691,249.127,37.691Z" transform="translate(-44.537 -6.742)" fill="gray"/>
    <path id="Path_562" data-name="Path 562" d="M218.776,48.188a.82.82,0,0,0-.82-.151s-.3,0-.151.6a.336.336,0,0,1,.255.345s.05.3.443.246a.919.919,0,0,0,.246-1.042Z" transform="translate(-39.088 -8.614)" fill="gray"/>
    <path id="Path_563" data-name="Path 563" d="M219.88,49.624s.2.151.393-.2a.82.82,0,0,0-.689-.886s-.648.151-.443,1.182c0,0,.345.3.345-.14C219.485,49.582,219.633,49.384,219.88,49.624Z" transform="translate(-39.329 -8.713)" fill="gray"/>
    <path id="Path_564" data-name="Path 564" d="M220.17,47.739c.1.493.82.886.82.886.345,0,.2-.493.2-.493-.2-.246-.1-.393-.1-.393.493-.1.151-.55.151-.55C220.268,46.943,220.17,47.739,220.17,47.739Z" transform="translate(-39.521 -8.462)" fill="gray"/>
    <path id="Path_565" data-name="Path 565" d="M62.23,35.97Z" transform="translate(-11.17 -6.456)" fill="gray"/>
    <path id="Path_566" data-name="Path 566" d="M218.173,47.4a1.542,1.542,0,0,0,.82-.246c.238-.05.1-.452.1-.452h0c0-.944-.6-.886-.6-.886a.353.353,0,0,0-.3.345c.1.5-.1.5-.1.5-.452.1-.151.591-.151.591C218.081,47.449,218.173,47.4,218.173,47.4Z" transform="translate(-39.11 -8.224)" fill="gray"/>
    <path id="Path_567" data-name="Path 567" d="M135.411,36.865c-.55-.246-3.076-2.035-3.076-2.035s-.493.3-.754-.82.05-32.106.05-32.106.1-.689-1.337-.345-12.307,3.865-12.307,3.865h0s-.443.1-.1.648a3.684,3.684,0,0,1,2.085,1.88c.493,1.346.2,26.723.2,26.723l-1.789,1.789s-.641.393.353,1.091c.82.493,10.806,4.923,10.806,4.923l6.145-4.759a.6.6,0,0,0-.279-.853Z" transform="translate(-21.14 -0.262)" fill="gray"/>
    <path id="Path_568" data-name="Path 568" d="M220.58,46.386s.345-.541-.2-.541a.4.4,0,0,1-.4-.255s-.591-.541-.591.255c0,0-.05.345.493.984a1.082,1.082,0,0,0,.7-.443Z" transform="translate(-39.381 -8.151)" fill="gray"/>
    <path id="Path_569" data-name="Path 569" d="M375.667,35.145V22.52s-.041-.6.353-.7l1.821-1.444s.3-.493-.3-1.141-11.4-6.047-11.4-6.047-.393-.591-1.387.1c0,0-11.848,4.759-16.508,10.853,0,0-3.717,2.38-3.052,11.75h0c0-.1.772,7.491,10.486,8.73l6.45-5.2a.5.5,0,0,1,.82-.107l10.913,5.309,6.632-5.2a1.149,1.149,0,0,0-.2-1.2Zm-12.143,2.273s-.754,1.247-2.576.4c0,0-4.673-2.314-6.474-5.948a11.011,11.011,0,0,1-.9-7.386,6.708,6.708,0,0,1,4.356-5.457l5.7,3.717Z" transform="translate(-61.951 -2.324)" fill="gray"/>
    <path id="Path_570" data-name="Path 570" d="M81.4,35.145V22.52s-.05-.6.345-.7l1.789-1.444s.3-.493-.3-1.141-11.4-6.047-11.4-6.047-.4-.591-1.394.1c0,0-11.848,4.759-16.508,10.853,0,0-3.708,2.38-3.043,11.75,0-.1.772,7.491,10.486,8.73l6.441-5.2a.508.508,0,0,1,.82-.107l10.9,5.309,6.712-5.194a1.149,1.149,0,0,0-.2-1.2ZM69.255,37.418s-.754,1.247-2.576.4c0,0-4.673-2.306-6.474-5.948a11.061,11.061,0,0,1-.919-7.386,6.727,6.727,0,0,1,4.371-5.457L69.4,22.747Z" transform="translate(-9.12 -2.324)" fill="gray"/>
    <path id="Path_571" data-name="Path 571" d="M112.032,39.051s-2.929-1.641-3.422-1.937a.582.582,0,0,1-.3-.739s-.4-12.751-.1-13.833.591-.7.591-.7a7.2,7.2,0,0,0,1.69-.754c.739-.493.05-.944.05-.944S101.27,15.3,100.572,14.7a.82.82,0,0,0-1.189,0h0a69.31,69.31,0,0,0-6.941,4.709c-.5.754-.1,1.091-.1,1.091s2.781,1.739,3.52,2.035.493.641.493.641l.205,12.891a4.975,4.975,0,0,1,0,1.239l-1.69,1.387a.82.82,0,0,0-.151,1.189l9.969,5s6.736-4.857,7.335-5.1S112.032,39.051,112.032,39.051Z" transform="translate(-16.55 -2.596)" fill="gray"/>
    <path id="Path_572" data-name="Path 572" d="M166.743,69.471c.288-.057.567-.081.567-.081S163.806,69.595,166.743,69.471Z" transform="translate(-29.72 -12.454)" fill="gray"/>
    <path id="Path_573" data-name="Path 573" d="M175.145,18.658c-.993-.754-9.567-5.555-9.567-5.555a1.124,1.124,0,0,0-1.346.246c-.739.7-5.948,4.315-5.948,4.315s-.591.55-.05.894l3.569,2.281a.641.641,0,0,1,.6.591c.1.55-.151,17.1-.151,17.1a1.42,1.42,0,0,1-1.091,1.494s-3.281,1.83-6.744-1.592l.1-17.6s-.255-.689.591-.82a2.085,2.085,0,0,0,1.189-.7s.5-.493-.443-1.239-8.278-4.513-8.278-4.513h0s-.944-1.042-1.682,0l-6.3,4.16a.534.534,0,0,0-.246.82,13.2,13.2,0,0,0,3.176,1.641,1.165,1.165,0,0,1,.7.648l.246,19.487s-3.972,2.461-4.1,8.771c0,0-.82,4.857,5.7,7.386a18.454,18.454,0,0,0,14.826-.641s3.768-2.831,7.235-2.33c0,0,2.528.493.886,3.422,0,0-.493,2.174-5,2.321h-.9c-.541.107-1.091.329.419.656,0,0,.886.754,4.1.1,0,0,7.187-1.978,7.039-7.838a6.834,6.834,0,0,0-1.887-4.751,8.14,8.14,0,0,0-4.406-2.19,16.706,16.706,0,0,0-6.3.151s-5.6,1.88-9.214,3.117c0,0-4.267,1.189-7.187-.689,0,0-2.388-1.042-2.232-3.176,0,0,.345-2.978,4.923-4.563a8.424,8.424,0,0,1,6.744.6s3.667,3.372,11.545,3.281c0,0,6.564-.6,7.2-4.768l.1-16.254a.82.82,0,0,1,.246-.944l2.461-2.461S176.1,19.4,175.145,18.658Z" transform="translate(-24.993 -2.329)" fill="gray"/>
  </g>
</svg>
