<svg id="basın_gq" data-name="basın gq" xmlns="http://www.w3.org/2000/svg" width="110.84" height="53.332" viewBox="0 0 110.84 53.332">
  <g id="g152" transform="translate(0 0)">
    <g id="g158" transform="translate(0 0.08)">
      <path id="path160" d="M54.252,22.5H28.929V35.021h6.783a11.627,11.627,0,0,1-8.69,3.684c-5.743,0-12.25-4.537-12.381-11.8A12.119,12.119,0,0,1,27.011,14.665a11.864,11.864,0,0,1,9.443,4.242h16.22A26.763,26.763,0,0,0,26.814.1,26.69,26.69,0,0,0,0,26.405C.05,41.979,12.11,53.351,27.4,53.351c16.532,0,25.739-13.587,26.9-23.647a35.209,35.209,0,0,0,0-7.2" transform="translate(0 -0.099)" fill="gray"/>
    </g>
    <g id="g162" transform="translate(54.005)">
      <path id="path164" d="M105.516,30.07l-1.378-1.837H87.507l6.729,9.731A11.65,11.65,0,0,1,80.623,26.584,12.307,12.307,0,0,1,93.144,14.367c8.742,0,14.826,8.057,12.374,15.705m9.994,12.021a27.077,27.077,0,0,0,4.964-14.85C120.474,10.74,108.986.024,92.831,0a26.921,26.921,0,0,0-26.74,22.375h0a25.435,25.435,0,0,0,0,7.386h0a27.207,27.207,0,0,0,26.8,23.382,24.033,24.033,0,0,0,11.766-3.165L106.3,52.12h16.361L115.51,42.093" transform="translate(-65.821 0.001)" fill="gray"/>
    </g>
  </g>
</svg>
