<svg xmlns="http://www.w3.org/2000/svg" width="180.738" height="64.5" viewBox="0 0 180.738 64.5">
  <g id="basın_the_sun" data-name="basın the sun" transform="translate(0)">
    <g id="katman_2" data-name="katman 2" transform="translate(0)">
      <g id="katman_3" data-name="katman 3">
        <path id="Path_574" data-name="Path 574" d="M0,0V64.5H180.738V0ZM127.481,5.448l-.656,2.2h-6.213l-.418,1.527h5.137l-.615,2.068h-5.08l-.484,1.7h6.257l-.6,2.157H114.385l2.659-9.691Zm-20.127,0L106.336,9.1h3.348l1.084-3.651h4.1l-2.635,9.691h-4.1l.82-3.667h-3.281l-1.055,3.815h-4.187l2.79-9.846Zm-15.458,0h9.9l-.748,2.391H98.361l-2.24,7.335H92.141l2.027-7.335h-2.93ZM66.074,40.025a13.8,13.8,0,0,1-1,3.282A20.316,20.316,0,0,1,54.974,53a30.357,30.357,0,0,1-5.447,2.261,24.061,24.061,0,0,1-3.381.96,5.809,5.809,0,0,1-1.494.393,79.375,79.375,0,0,1-8.55,1.32c-.493,0-1.025.151-1.568.115a5.892,5.892,0,0,0-1.584.115,29.879,29.879,0,0,0-3.208,0A32.72,32.72,0,0,1,24.7,57.9c-1.739-.271-3.281-.484-4.923-.772a12.8,12.8,0,0,1-2-.434,26.756,26.756,0,0,1-8.743-3.824,9.026,9.026,0,0,1-1.534-1.263,12.374,12.374,0,0,1-3.274-4.263,12.8,12.8,0,0,1-1.247-4.824c.115-.229.5,0,.672-.2,1.263-.09,2.543-.222,3.824-.434.534-.214,1.263,0,1.8-.246a7.106,7.106,0,0,1,2.042-.229h.615l4.415-.517c.534-.172,1.222-.14,1.756-.288a11.406,11.406,0,0,1,2.042-.188c.615-.14,1.263-.172,1.911-.288a8.394,8.394,0,0,1,1.436,0,5.686,5.686,0,0,0,1.536,3.355,7.084,7.084,0,0,0,2.261,1.64,4.1,4.1,0,0,0,1.494.591,15.458,15.458,0,0,0,2.2.484,3.143,3.143,0,0,0,1.108,0,2.2,2.2,0,0,1,1.337.151h3.358a23.293,23.293,0,0,0,3.824-.591,4.587,4.587,0,0,0,3.072-2.35,2.24,2.24,0,0,0-.188-1.937,5.588,5.588,0,0,0-3.11-1.911c-2.461-.517-5.013-.96-7.537-1.32-.993-.115-2.027-.345-3-.517s-2.149-.419-3.208-.705c-4.587-1.149-9.427-2.462-12.767-5.85a8.468,8.468,0,0,1-2.38-6.228,15.27,15.27,0,0,1,4.242-9.658,25.985,25.985,0,0,1,6.934-5.292A37.532,37.532,0,0,1,32.5,6.711c.993-.172,2-.4,3.076-.517a31.18,31.18,0,0,1,3.364-.452c.271-.214.574,0,.82-.14h2.158c.3,0,.615-.222.96,0,1.337-.188,2.691.115,4.1,0h0l1.149.115c.624-.151,1.2.172,1.773.14.271.115.615,0,.82.151a4.974,4.974,0,0,1,1.256.115,48.46,48.46,0,0,1,5.747,1.114c1.075.4,2.273.772,3.281,1.247a22.523,22.523,0,0,1,3.8,2.184,12.308,12.308,0,0,1,5.1,7.537c0,.115-.188.188-.345.229-3.618.82-7.3,1.437-10.839,2.24a26.175,26.175,0,0,1-3.281.665c-.151.14-.5,0-.689.14a32.917,32.917,0,0,1-3.339.665c-.151,0-.229-.151-.271-.288A6.632,6.632,0,0,0,50.046,19.7,6.007,6.007,0,0,0,48.5,18.473a9.083,9.083,0,0,0-2.223-.919,20.249,20.249,0,0,0-2.676-.632H40.024a15.589,15.589,0,0,0-4.8,1.167,3.165,3.165,0,0,0-1.8,2.79c.419,1.911,2.519,1.911,4.1,2.5,2.216.484,4.611.82,6.827,1.189.779,0,1.641.288,2.461.32.151.151.452,0,.648.151,1.239.151,2.347.476,3.536.632.262.131.574,0,.82.246a7.261,7.261,0,0,1,1.911.476,22.973,22.973,0,0,1,3.824,1.115,13.6,13.6,0,0,1,7.761,5.924,9.543,9.543,0,0,1,.977,4.061,10.068,10.068,0,0,1-.222,2.531ZM95.715,57.337s.993-3.693,1.477-6h-.151A16.673,16.673,0,0,1,89.55,56.5,32.072,32.072,0,0,1,81.6,58.141H77.437a17.636,17.636,0,0,1-7.811-2.183,6.565,6.565,0,0,1-3.06-4.833v-.754l.151-1.78c.574-3.281,1.641-6.457,2.33-9.691a27.623,27.623,0,0,0,.722-2.676c1.477-5.5,4.325-16.542,4.325-16.542H94.11c-1.337,6.038-3.191,11.947-4.685,17.928a21.63,21.63,0,0,1-.632,2.33,23.45,23.45,0,0,0-1.108,5.621,2.261,2.261,0,0,0,.763,1.411,4.037,4.037,0,0,0,1.7.558,8.559,8.559,0,0,0,3.5-.229A6.974,6.974,0,0,0,98.459,42.5c.5-1.411.772-2.938,1.222-4.389.9-3.634,1.911-7.235,2.814-10.839.648-2.528,1.32-5,1.911-7.537h20.144l-9.843,37.755ZM175.836,27.9a29.89,29.89,0,0,1-1.3,6.9c-.82,3.233-5.94,22.646-5.94,22.646h-19.9s.271-1.01.386-1.337c1.067-4,2.142-7.989,3.134-12.021,1.034-3.824,1.911-7.451,2.9-11.257a3.2,3.2,0,0,0-.82-3.364,4.22,4.22,0,0,0-2.247-.55h-1.115a6.7,6.7,0,0,0-5.268,2.676,31.723,31.723,0,0,0-2.3,6.7L138.507,57.43H118.5c.262-1.756,10.01-37.684,10.01-37.684H147.09l-1.18,5.083h.131a14.655,14.655,0,0,1,3.824-3.134,23.047,23.047,0,0,1,8.771-2.6c.919,0,1.764-.188,2.683-.188a18.462,18.462,0,0,0,2.938,0s2.11.188,2.871.362a13.029,13.029,0,0,1,6.687,2.659A6.613,6.613,0,0,1,176.03,27.3c.048.3-.2.418-.2.6Z" fill="gray" fill-rule="evenodd"/>
      </g>
    </g>
  </g>
</svg>
