<svg xmlns="http://www.w3.org/2000/svg" width="185.432" height="51.446" viewBox="0 0 185.432 51.446">
  <g id="basın_yahoo" data-name="basın yahoo" transform="translate(0)">
    <path id="Path_575" data-name="Path 575" d="M0,12.537H11.035l6.409,16.4,6.5-16.4H34.7L18.519,51.446H7.713l4.447-10.3Zm45.882-.656c-8.278,0-13.522,7.434-13.522,14.826,0,8.321,5.743,14.923,13.375,14.923,5.743,0,7.861-3.467,7.861-3.467v2.713h9.633V12.537H53.595V15.1a9.92,9.92,0,0,0-7.713-3.224ZM47.933,21a5.8,5.8,0,1,1-5.793,5.859A5.588,5.588,0,0,1,47.933,21ZM66.5,40.878V0H76.56V15.2a9.288,9.288,0,0,1,7.386-3.282c6.129,0,9.731,4.578,9.731,11.085V40.878H83.69V25.435c0-2.2-1.025-4.349-3.413-4.349a3.952,3.952,0,0,0-3.693,4.349V40.878Zm44.308-29A14.669,14.669,0,0,0,95.654,26.847a14.657,14.657,0,0,0,15.2,14.826c8.09,0,15.155-5.743,15.155-14.688.033-9.756-7.4-15.105-15.162-15.105Zm.09,9.165a5.7,5.7,0,0,1,0,11.4,5.6,5.6,0,0,1-5.612-5.743,5.448,5.448,0,0,1,5.645-5.662Zm31.868-9.165a14.669,14.669,0,0,0-15.155,14.967,14.657,14.657,0,0,0,15.2,14.826c8.09,0,15.155-5.743,15.155-14.688C157.979,17.231,150.594,11.881,142.767,11.881Zm.09,9.165a5.695,5.695,0,0,1,5.662,5.743,5.793,5.793,0,0,1-5.662,5.662,5.6,5.6,0,0,1-5.612-5.743,5.473,5.473,0,0,1,5.628-5.662Zm23.062,7.065a6.705,6.705,0,1,0,.017,0Zm8.893-2.462H162.791L173.46,0h11.971Z" transform="translate(0)" fill="gray"/>
  </g>
</svg>
